<svg width="21" height="22" viewBox="0 0 21 22" fill="none" xmlns="http://www.w3.org/2000/svg">
<path d="M20.3438 5.09375C20.7812 5.53125 21 6.0625 21 6.6875V19.25C21 19.875 20.7812 20.4062 20.3438 20.8438C19.9062 21.2812 19.375 21.5 18.75 21.5H2.25C1.625 21.5 1.09375 21.2812 0.65625 20.8438C0.21875 20.4062 0 19.875 0 19.25V2.75C0 2.125 0.21875 1.59375 0.65625 1.15625C1.09375 0.71875 1.625 0.5 2.25 0.5H14.8125C15.4375 0.5 15.9688 0.71875 16.4062 1.15625L20.3438 5.09375ZM12.75 2.75H6.75V6.5H12.75V2.75ZM18.4688 19.25C18.6562 19.25 18.75 19.1562 18.75 18.9688V6.78125C18.75 6.71875 18.7188 6.65625 18.6562 6.59375L15 2.9375V7.625C15 7.9375 14.8906 8.20312 14.6719 8.42188C14.4531 8.64062 14.1875 8.75 13.875 8.75H5.625C5.3125 8.75 5.04688 8.64062 4.82812 8.42188C4.60938 8.20312 4.5 7.9375 4.5 7.625V2.75H2.53125C2.34375 2.75 2.25 2.84375 2.25 3.03125V18.9688C2.25 19.1562 2.34375 19.25 2.53125 19.25H18.4688ZM7.59375 11.0938C8.40625 10.2812 9.375 9.875 10.5 9.875C11.625 9.875 12.5938 10.2812 13.4062 11.0938C14.2188 11.9062 14.625 12.875 14.625 14C14.625 15.125 14.2188 16.0938 13.4062 16.9062C12.5938 17.7188 11.625 18.125 10.5 18.125C9.375 18.125 8.40625 17.7188 7.59375 16.9062C6.78125 16.0938 6.375 15.125 6.375 14C6.375 12.875 6.78125 11.9062 7.59375 11.0938ZM9.14062 15.3594C9.51562 15.7031 9.96875 15.875 10.5 15.875C11.0312 15.875 11.4688 15.7031 11.8125 15.3594C12.1875 14.9844 12.375 14.5312 12.375 14C12.375 13.4688 12.1875 13.0312 11.8125 12.6875C11.4688 12.3125 11.0312 12.125 10.5 12.125C9.96875 12.125 9.51562 12.3125 9.14062 12.6875C8.79688 13.0312 8.625 13.4688 8.625 14C8.625 14.5312 8.79688 14.9844 9.14062 15.3594Z" fill="#2313DD"/>
</svg>
