<svg width="17" height="18" viewBox="0 0 17 18" fill="none" xmlns="http://www.w3.org/2000/svg">
<path d="M5 3.85714C5 4.64955 4.36384 5.28571 3.57143 5.28571C2.77902 5.28571 2.14286 4.64955 2.14286 3.85714C2.14286 3.06473 2.77902 2.42857 3.57143 2.42857C4.36384 2.42857 5 3.06473 5 3.85714ZM16.9085 10.2857C16.9085 9.90625 16.7522 9.53795 16.4955 9.27009L8.51563 1.30134C7.94643 0.732143 6.86384 0.285713 6.07143 0.285713H1.42857C0.647321 0.285713 0 0.933035 0 1.71429V6.35714C0 7.14955 0.446429 8.23214 1.01563 8.79018L8.99554 16.7812C9.25223 17.0379 9.62054 17.1942 10 17.1942C10.3795 17.1942 10.7478 17.0379 11.0156 16.7812L16.4955 11.2902C16.7522 11.0335 16.9085 10.6652 16.9085 10.2857Z" fill="black"/>
</svg>
