<svg width="25" height="17" viewBox="0 0 25 17" fill="none" xmlns="http://www.w3.org/2000/svg">
<path d="M12.375 3.9375C13.7214 3.9375 14.8529 4.41016 15.7695 5.35547C16.7148 6.27214 17.1875 7.40365 17.1875 8.75C17.1875 10.0677 16.7148 11.1992 15.7695 12.1445C14.8529 13.0612 13.7214 13.5195 12.375 13.5195C11.0573 13.5195 9.92578 13.0612 8.98047 12.1445C8.0638 11.1992 7.60547 10.0677 7.60547 8.75C7.60547 8.29167 7.66276 7.84766 7.77734 7.41797C8.14974 7.61849 8.53646 7.71875 8.9375 7.71875C9.59635 7.71875 10.1549 7.48958 10.6133 7.03125C11.1003 6.54427 11.3438 5.97135 11.3438 5.3125C11.3438 4.91146 11.2435 4.52474 11.043 4.15234C11.4727 4.00911 11.9167 3.9375 12.375 3.9375ZM24.6211 8.10547C24.707 8.30599 24.75 8.52083 24.75 8.75C24.75 8.97917 24.707 9.19401 24.6211 9.39453C23.418 11.6862 21.7279 13.5339 19.5508 14.9375C17.3737 16.3125 14.9818 17 12.375 17C10.6562 17 8.99479 16.6849 7.39062 16.0547C5.8151 15.3958 4.41146 14.5078 3.17969 13.3906C1.94792 12.2448 0.93099 10.9128 0.128906 9.39453C0.0429688 9.19401 0 8.97917 0 8.75C0 8.52083 0.0429688 8.30599 0.128906 8.10547C1.33203 5.8138 3.02214 3.98047 5.19922 2.60547C7.3763 1.20182 9.76823 0.5 12.375 0.5C14.9818 0.5 17.3737 1.20182 19.5508 2.60547C21.7279 3.98047 23.418 5.8138 24.6211 8.10547ZM12.375 14.9375C14.4948 14.9375 16.457 14.3932 18.2617 13.3047C20.0951 12.1875 21.5417 10.6693 22.6016 8.75C21.5417 6.83073 20.0951 5.32682 18.2617 4.23828C16.457 3.12109 14.4948 2.5625 12.375 2.5625C10.2552 2.5625 8.27865 3.12109 6.44531 4.23828C4.64062 5.32682 3.20833 6.83073 2.14844 8.75C2.83594 10.0104 3.70964 11.1133 4.76953 12.0586C5.82943 12.9753 7.00391 13.6914 8.29297 14.207C9.61068 14.694 10.9714 14.9375 12.375 14.9375Z" fill="#787878"/>
</svg>
