<svg width="161" height="53" viewBox="0 0 161 53" fill="none" xmlns="http://www.w3.org/2000/svg">
<circle cx="26.5" cy="26.5" r="25.5" fill="#C4C4C4" stroke="white" stroke-width="2"/>
<circle cx="59.5" cy="26.5" r="25.5" fill="#C4C4C4" stroke="white" stroke-width="2"/>
<circle cx="98.5" cy="26.5" r="25.5" fill="#C4C4C4" stroke="white" stroke-width="2"/>
<circle cx="134.5" cy="26.5" r="25.5" fill="#C4C4C4" stroke="white" stroke-width="2"/>
<path d="M125.761 26.749H122.992V29.557H121.887V26.749H119.131V25.748H121.887V22.927H122.992V25.748H125.761V26.749ZM127.537 30.051C128.638 29.167 129.5 28.4433 130.124 27.88C130.748 27.308 131.272 26.7143 131.697 26.099C132.13 25.475 132.347 24.864 132.347 24.266C132.347 23.7027 132.208 23.2607 131.931 22.94C131.662 22.6107 131.225 22.446 130.618 22.446C130.029 22.446 129.569 22.6323 129.24 23.005C128.919 23.369 128.746 23.8587 128.72 24.474H127.576C127.611 23.5033 127.905 22.7537 128.46 22.225C129.015 21.6963 129.73 21.432 130.605 21.432C131.498 21.432 132.204 21.679 132.724 22.173C133.253 22.667 133.517 23.3473 133.517 24.214C133.517 24.9333 133.3 25.6353 132.867 26.32C132.442 26.996 131.957 27.594 131.411 28.114C130.865 28.6253 130.167 29.2233 129.318 29.908H133.79V30.896H127.537V30.051ZM136.679 28.478C136.765 28.972 136.965 29.3533 137.277 29.622C137.597 29.8907 138.026 30.025 138.564 30.025C139.283 30.025 139.812 29.7433 140.15 29.18C140.496 28.6167 140.661 27.6677 140.644 26.333C140.462 26.723 140.158 27.0307 139.734 27.256C139.309 27.4727 138.837 27.581 138.317 27.581C137.736 27.581 137.216 27.464 136.757 27.23C136.306 26.9873 135.951 26.6363 135.691 26.177C135.431 25.7177 135.301 25.163 135.301 24.513C135.301 23.5857 135.569 22.8403 136.107 22.277C136.644 21.705 137.407 21.419 138.395 21.419C139.608 21.419 140.457 21.8133 140.943 22.602C141.437 23.3907 141.684 24.565 141.684 26.125C141.684 27.217 141.584 28.1183 141.385 28.829C141.194 29.5397 140.865 30.0813 140.397 30.454C139.937 30.8267 139.305 31.013 138.499 31.013C137.615 31.013 136.926 30.7747 136.432 30.298C135.938 29.8213 135.656 29.2147 135.587 28.478H136.679ZM138.512 26.58C139.092 26.58 139.569 26.4023 139.942 26.047C140.314 25.683 140.501 25.1933 140.501 24.578C140.501 23.928 140.319 23.4037 139.955 23.005C139.591 22.6063 139.079 22.407 138.421 22.407C137.814 22.407 137.329 22.5977 136.965 22.979C136.609 23.3603 136.432 23.863 136.432 24.487C136.432 25.1197 136.609 25.6267 136.965 26.008C137.32 26.3893 137.836 26.58 138.512 26.58ZM145.062 26.112C144.577 25.9213 144.204 25.644 143.944 25.28C143.684 24.916 143.554 24.474 143.554 23.954C143.554 23.486 143.671 23.0657 143.905 22.693C144.139 22.3117 144.486 22.0127 144.945 21.796C145.413 21.5707 145.976 21.458 146.635 21.458C147.294 21.458 147.853 21.5707 148.312 21.796C148.78 22.0127 149.131 22.3117 149.365 22.693C149.608 23.0657 149.729 23.486 149.729 23.954C149.729 24.4567 149.595 24.8987 149.326 25.28C149.057 25.6527 148.689 25.93 148.221 26.112C148.758 26.2767 149.183 26.567 149.495 26.983C149.816 27.3903 149.976 27.8843 149.976 28.465C149.976 29.0283 149.837 29.5223 149.56 29.947C149.283 30.363 148.888 30.688 148.377 30.922C147.874 31.1473 147.294 31.26 146.635 31.26C145.976 31.26 145.396 31.1473 144.893 30.922C144.399 30.688 144.013 30.363 143.736 29.947C143.459 29.5223 143.32 29.0283 143.32 28.465C143.32 27.8843 143.476 27.386 143.788 26.97C144.1 26.554 144.525 26.268 145.062 26.112ZM148.585 24.097C148.585 23.5683 148.412 23.161 148.065 22.875C147.718 22.589 147.242 22.446 146.635 22.446C146.037 22.446 145.565 22.589 145.218 22.875C144.871 23.161 144.698 23.5727 144.698 24.11C144.698 24.5953 144.876 24.9853 145.231 25.28C145.595 25.5747 146.063 25.722 146.635 25.722C147.216 25.722 147.684 25.5747 148.039 25.28C148.403 24.9767 148.585 24.5823 148.585 24.097ZM146.635 26.632C145.994 26.632 145.469 26.7837 145.062 27.087C144.655 27.3817 144.451 27.828 144.451 28.426C144.451 28.9807 144.646 29.427 145.036 29.765C145.435 30.103 145.968 30.272 146.635 30.272C147.302 30.272 147.831 30.103 148.221 29.765C148.611 29.427 148.806 28.9807 148.806 28.426C148.806 27.8453 148.607 27.4033 148.208 27.1C147.809 26.788 147.285 26.632 146.635 26.632Z" fill="black"/>
</svg>
