<svg width="944" height="1080" viewBox="0 0 944 1080" fill="none" xmlns="http://www.w3.org/2000/svg">
<rect width="945" height="1080" transform="matrix(1 0 0 -1 -1 1080)" fill="#333333"/>
<g filter="url(#filter0_d)">
<rect x="189" y="720.254" width="240" height="52" rx="7" fill="#2313DD"/>
</g>
<path d="M237.44 746.526C238.069 746.643 238.587 746.958 238.992 747.47C239.397 747.982 239.6 748.569 239.6 749.23C239.6 749.827 239.451 750.355 239.152 750.814C238.864 751.262 238.443 751.614 237.888 751.87C237.333 752.126 236.677 752.254 235.92 752.254H231.104V741.086H235.712C236.469 741.086 237.12 741.209 237.664 741.454C238.219 741.699 238.635 742.041 238.912 742.478C239.2 742.915 239.344 743.411 239.344 743.966C239.344 744.617 239.168 745.161 238.816 745.598C238.475 746.035 238.016 746.345 237.44 746.526ZM233.344 745.694H235.392C235.925 745.694 236.336 745.577 236.624 745.342C236.912 745.097 237.056 744.75 237.056 744.302C237.056 743.854 236.912 743.507 236.624 743.262C236.336 743.017 235.925 742.894 235.392 742.894H233.344V745.694ZM235.6 750.43C236.144 750.43 236.565 750.302 236.864 750.046C237.173 749.79 237.328 749.427 237.328 748.958C237.328 748.478 237.168 748.105 236.848 747.838C236.528 747.561 236.096 747.422 235.552 747.422H233.344V750.43H235.6ZM240.809 747.79C240.809 746.894 240.985 746.099 241.337 745.406C241.7 744.713 242.185 744.179 242.793 743.806C243.412 743.433 244.1 743.246 244.857 743.246C245.519 743.246 246.095 743.379 246.585 743.646C247.087 743.913 247.487 744.249 247.785 744.654V743.39H250.041V752.254H247.785V750.958C247.497 751.374 247.097 751.721 246.585 751.998C246.084 752.265 245.503 752.398 244.841 752.398C244.095 752.398 243.412 752.206 242.793 751.822C242.185 751.438 241.7 750.899 241.337 750.206C240.985 749.502 240.809 748.697 240.809 747.79ZM247.785 747.822C247.785 747.278 247.679 746.814 247.465 746.43C247.252 746.035 246.964 745.737 246.601 745.534C246.239 745.321 245.849 745.214 245.433 745.214C245.017 745.214 244.633 745.315 244.281 745.518C243.929 745.721 243.641 746.019 243.417 746.414C243.204 746.798 243.097 747.257 243.097 747.79C243.097 748.323 243.204 748.793 243.417 749.198C243.641 749.593 243.929 749.897 244.281 750.11C244.644 750.323 245.028 750.43 245.433 750.43C245.849 750.43 246.239 750.329 246.601 750.126C246.964 749.913 247.252 749.614 247.465 749.23C247.679 748.835 247.785 748.366 247.785 747.822ZM251.653 747.822C251.653 746.905 251.84 746.105 252.213 745.422C252.586 744.729 253.104 744.195 253.765 743.822C254.426 743.438 255.184 743.246 256.037 743.246C257.136 743.246 258.042 743.523 258.757 744.078C259.482 744.622 259.968 745.39 260.213 746.382H257.797C257.669 745.998 257.45 745.699 257.141 745.486C256.842 745.262 256.469 745.15 256.021 745.15C255.381 745.15 254.874 745.385 254.501 745.854C254.128 746.313 253.941 746.969 253.941 747.822C253.941 748.665 254.128 749.321 254.501 749.79C254.874 750.249 255.381 750.478 256.021 750.478C256.928 750.478 257.52 750.073 257.797 749.262H260.213C259.968 750.222 259.482 750.985 258.757 751.55C258.032 752.115 257.125 752.398 256.037 752.398C255.184 752.398 254.426 752.211 253.765 751.838C253.104 751.454 252.586 750.921 252.213 750.238C251.84 749.545 251.653 748.739 251.653 747.822ZM267.102 752.254L264.094 748.478V752.254H261.854V740.414H264.094V747.15L267.07 743.39H269.982L266.078 747.838L270.014 752.254H267.102ZM282.61 741.086V742.894H279.634V752.254H277.394V742.894H274.418V741.086H282.61ZM288.181 752.398C287.327 752.398 286.559 752.211 285.877 751.838C285.194 751.454 284.655 750.915 284.261 750.222C283.877 749.529 283.685 748.729 283.685 747.822C283.685 746.915 283.882 746.115 284.277 745.422C284.682 744.729 285.231 744.195 285.925 743.822C286.618 743.438 287.391 743.246 288.245 743.246C289.098 743.246 289.871 743.438 290.565 743.822C291.258 744.195 291.802 744.729 292.197 745.422C292.602 746.115 292.805 746.915 292.805 747.822C292.805 748.729 292.597 749.529 292.181 750.222C291.775 750.915 291.221 751.454 290.517 751.838C289.823 752.211 289.045 752.398 288.181 752.398ZM288.181 750.446C288.586 750.446 288.965 750.35 289.317 750.158C289.679 749.955 289.967 749.657 290.181 749.262C290.394 748.867 290.501 748.387 290.501 747.822C290.501 746.979 290.277 746.334 289.829 745.886C289.391 745.427 288.853 745.198 288.213 745.198C287.573 745.198 287.034 745.427 286.597 745.886C286.17 746.334 285.957 746.979 285.957 747.822C285.957 748.665 286.165 749.315 286.581 749.774C287.007 750.222 287.541 750.446 288.181 750.446ZM302.164 741.086C303.338 741.086 304.367 741.315 305.252 741.774C306.148 742.233 306.836 742.889 307.316 743.742C307.807 744.585 308.052 745.566 308.052 746.686C308.052 747.806 307.807 748.787 307.316 749.63C306.836 750.462 306.148 751.107 305.252 751.566C304.367 752.025 303.338 752.254 302.164 752.254H298.26V741.086H302.164ZM302.084 750.35C303.258 750.35 304.164 750.03 304.804 749.39C305.444 748.75 305.764 747.849 305.764 746.686C305.764 745.523 305.444 744.617 304.804 743.966C304.164 743.305 303.258 742.974 302.084 742.974H300.5V750.35H302.084ZM309.153 747.79C309.153 746.894 309.329 746.099 309.681 745.406C310.044 744.713 310.529 744.179 311.137 743.806C311.756 743.433 312.444 743.246 313.201 743.246C313.862 743.246 314.438 743.379 314.929 743.646C315.43 743.913 315.83 744.249 316.129 744.654V743.39H318.385V752.254H316.129V750.958C315.841 751.374 315.441 751.721 314.929 751.998C314.428 752.265 313.846 752.398 313.185 752.398C312.438 752.398 311.756 752.206 311.137 751.822C310.529 751.438 310.044 750.899 309.681 750.206C309.329 749.502 309.153 748.697 309.153 747.79ZM316.129 747.822C316.129 747.278 316.022 746.814 315.809 746.43C315.596 746.035 315.308 745.737 314.945 745.534C314.582 745.321 314.193 745.214 313.777 745.214C313.361 745.214 312.977 745.315 312.625 745.518C312.273 745.721 311.985 746.019 311.761 746.414C311.548 746.798 311.441 747.257 311.441 747.79C311.441 748.323 311.548 748.793 311.761 749.198C311.985 749.593 312.273 749.897 312.625 750.11C312.988 750.323 313.372 750.43 313.777 750.43C314.193 750.43 314.582 750.329 314.945 750.126C315.308 749.913 315.596 749.614 315.809 749.23C316.022 748.835 316.129 748.366 316.129 747.822ZM323.965 752.398C323.239 752.398 322.589 752.27 322.013 752.014C321.437 751.747 320.978 751.39 320.637 750.942C320.306 750.494 320.125 749.998 320.093 749.454H322.349C322.391 749.795 322.557 750.078 322.845 750.302C323.143 750.526 323.511 750.638 323.949 750.638C324.375 750.638 324.706 750.553 324.941 750.382C325.186 750.211 325.309 749.993 325.309 749.726C325.309 749.438 325.159 749.225 324.861 749.086C324.573 748.937 324.109 748.777 323.469 748.606C322.807 748.446 322.263 748.281 321.837 748.11C321.421 747.939 321.058 747.678 320.749 747.326C320.45 746.974 320.301 746.499 320.301 745.902C320.301 745.411 320.439 744.963 320.717 744.558C321.005 744.153 321.41 743.833 321.933 743.598C322.466 743.363 323.09 743.246 323.805 743.246C324.861 743.246 325.703 743.513 326.333 744.046C326.962 744.569 327.309 745.278 327.373 746.174H325.229C325.197 745.822 325.047 745.545 324.781 745.342C324.525 745.129 324.178 745.022 323.741 745.022C323.335 745.022 323.021 745.097 322.797 745.246C322.583 745.395 322.477 745.603 322.477 745.87C322.477 746.169 322.626 746.398 322.925 746.558C323.223 746.707 323.687 746.862 324.317 747.022C324.957 747.182 325.485 747.347 325.901 747.518C326.317 747.689 326.674 747.955 326.973 748.318C327.282 748.67 327.442 749.139 327.453 749.726C327.453 750.238 327.309 750.697 327.021 751.102C326.743 751.507 326.338 751.827 325.805 752.062C325.282 752.286 324.669 752.398 323.965 752.398ZM334.284 743.262C334.956 743.262 335.553 743.411 336.076 743.71C336.598 743.998 337.004 744.43 337.292 745.006C337.59 745.571 337.74 746.254 337.74 747.054V752.254H335.5V747.358C335.5 746.654 335.324 746.115 334.972 745.742C334.62 745.358 334.14 745.166 333.532 745.166C332.913 745.166 332.422 745.358 332.06 745.742C331.708 746.115 331.532 746.654 331.532 747.358V752.254H329.292V740.414H331.532V744.494C331.82 744.11 332.204 743.811 332.684 743.598C333.164 743.374 333.697 743.262 334.284 743.262ZM342.11 744.686C342.398 744.259 342.792 743.913 343.294 743.646C343.806 743.379 344.387 743.246 345.038 743.246C345.795 743.246 346.478 743.433 347.086 743.806C347.704 744.179 348.19 744.713 348.542 745.406C348.904 746.089 349.086 746.883 349.086 747.79C349.086 748.697 348.904 749.502 348.542 750.206C348.19 750.899 347.704 751.438 347.086 751.822C346.478 752.206 345.795 752.398 345.038 752.398C344.376 752.398 343.795 752.27 343.294 752.014C342.803 751.747 342.408 751.406 342.11 750.99V752.254H339.87V740.414H342.11V744.686ZM346.798 747.79C346.798 747.257 346.686 746.798 346.462 746.414C346.248 746.019 345.96 745.721 345.598 745.518C345.246 745.315 344.862 745.214 344.446 745.214C344.04 745.214 343.656 745.321 343.294 745.534C342.942 745.737 342.654 746.035 342.43 746.43C342.216 746.825 342.11 747.289 342.11 747.822C342.11 748.355 342.216 748.819 342.43 749.214C342.654 749.609 342.942 749.913 343.294 750.126C343.656 750.329 344.04 750.43 344.446 750.43C344.862 750.43 345.246 750.323 345.598 750.11C345.96 749.897 346.248 749.593 346.462 749.198C346.686 748.803 346.798 748.334 346.798 747.79ZM354.649 752.398C353.796 752.398 353.028 752.211 352.345 751.838C351.663 751.454 351.124 750.915 350.729 750.222C350.345 749.529 350.153 748.729 350.153 747.822C350.153 746.915 350.351 746.115 350.745 745.422C351.151 744.729 351.7 744.195 352.393 743.822C353.087 743.438 353.86 743.246 354.713 743.246C355.567 743.246 356.34 743.438 357.033 743.822C357.727 744.195 358.271 744.729 358.665 745.422C359.071 746.115 359.273 746.915 359.273 747.822C359.273 748.729 359.065 749.529 358.649 750.222C358.244 750.915 357.689 751.454 356.985 751.838C356.292 752.211 355.513 752.398 354.649 752.398ZM354.649 750.446C355.055 750.446 355.433 750.35 355.785 750.158C356.148 749.955 356.436 749.657 356.649 749.262C356.863 748.867 356.969 748.387 356.969 747.822C356.969 746.979 356.745 746.334 356.297 745.886C355.86 745.427 355.321 745.198 354.681 745.198C354.041 745.198 353.503 745.427 353.065 745.886C352.639 746.334 352.425 746.979 352.425 747.822C352.425 748.665 352.633 749.315 353.049 749.774C353.476 750.222 354.009 750.446 354.649 750.446ZM360.34 747.79C360.34 746.894 360.516 746.099 360.868 745.406C361.231 744.713 361.717 744.179 362.325 743.806C362.943 743.433 363.631 743.246 364.389 743.246C365.05 743.246 365.626 743.379 366.117 743.646C366.618 743.913 367.018 744.249 367.317 744.654V743.39H369.573V752.254H367.317V750.958C367.029 751.374 366.629 751.721 366.117 751.998C365.615 752.265 365.034 752.398 364.373 752.398C363.626 752.398 362.943 752.206 362.325 751.822C361.717 751.438 361.231 750.899 360.868 750.206C360.516 749.502 360.34 748.697 360.34 747.79ZM367.317 747.822C367.317 747.278 367.21 746.814 366.997 746.43C366.783 746.035 366.495 745.737 366.133 745.534C365.77 745.321 365.381 745.214 364.965 745.214C364.549 745.214 364.165 745.315 363.812 745.518C363.461 745.721 363.173 746.019 362.949 746.414C362.735 746.798 362.629 747.257 362.629 747.79C362.629 748.323 362.735 748.793 362.949 749.198C363.173 749.593 363.461 749.897 363.812 750.11C364.175 750.323 364.559 750.43 364.965 750.43C365.381 750.43 365.77 750.329 366.133 750.126C366.495 749.913 366.783 749.614 366.997 749.23C367.21 748.835 367.317 748.366 367.317 747.822ZM374 744.766C374.288 744.297 374.662 743.929 375.12 743.662C375.59 743.395 376.123 743.262 376.72 743.262V745.614H376.128C375.424 745.614 374.891 745.779 374.528 746.11C374.176 746.441 374 747.017 374 747.838V752.254H371.76V743.39H374V744.766ZM377.653 747.79C377.653 746.894 377.829 746.099 378.181 745.406C378.544 744.713 379.034 744.179 379.653 743.806C380.272 743.433 380.96 743.246 381.717 743.246C382.293 743.246 382.842 743.374 383.365 743.63C383.888 743.875 384.304 744.206 384.613 744.622V740.414H386.885V752.254H384.613V750.942C384.336 751.379 383.946 751.731 383.445 751.998C382.944 752.265 382.362 752.398 381.701 752.398C380.954 752.398 380.272 752.206 379.653 751.822C379.034 751.438 378.544 750.899 378.181 750.206C377.829 749.502 377.653 748.697 377.653 747.79ZM384.629 747.822C384.629 747.278 384.522 746.814 384.309 746.43C384.096 746.035 383.808 745.737 383.445 745.534C383.082 745.321 382.693 745.214 382.277 745.214C381.861 745.214 381.477 745.315 381.125 745.518C380.773 745.721 380.485 746.019 380.261 746.414C380.048 746.798 379.941 747.257 379.941 747.79C379.941 748.323 380.048 748.793 380.261 749.198C380.485 749.593 380.773 749.897 381.125 750.11C381.488 750.323 381.872 750.43 382.277 750.43C382.693 750.43 383.082 750.329 383.445 750.126C383.808 749.913 384.096 749.614 384.309 749.23C384.522 748.835 384.629 748.366 384.629 747.822Z" fill="white"/>
<path d="M190.392 475.374H197.064L199.8 499.134L203.208 475.422H208.536L212.088 499.038L214.824 475.374H221.4L216.408 514.254H209.64L205.896 489.63L202.296 514.254H195.432L190.392 475.374ZM225.341 475.374H232.589V489.054C234.605 487.038 236.877 486.03 239.405 486.03C240.973 486.03 242.173 486.622 243.005 487.806C243.837 488.99 244.253 490.51 244.253 492.366V514.254H237.053V493.518C237.053 492.75 236.925 492.19 236.669 491.838C236.413 491.454 235.981 491.262 235.373 491.262C234.573 491.262 233.645 491.662 232.589 492.462V514.254H225.341V475.374ZM249.585 516.99C251.217 516.99 252.385 516.814 253.089 516.462C253.825 516.142 254.193 515.55 254.193 514.686C254.193 514.27 254.081 513.614 253.857 512.718C253.665 511.822 253.441 510.894 253.185 509.934L246.849 486.51H253.761L257.265 503.55L260.145 486.51H267.057L260.625 515.118C260.049 517.678 258.977 519.47 257.409 520.494C255.841 521.55 253.745 522.078 251.121 522.078H249.585V516.99ZM292.476 514.782C288.892 514.782 286.204 513.806 284.412 511.854C282.62 509.87 281.644 506.814 281.484 502.686L288.3 501.534C288.364 503.998 288.7 505.822 289.308 507.006C289.948 508.158 290.892 508.734 292.14 508.734C293.068 508.734 293.74 508.446 294.156 507.87C294.572 507.262 294.78 506.494 294.78 505.566C294.78 504.03 294.428 502.734 293.724 501.678C293.052 500.59 291.98 499.406 290.508 498.126L286.476 494.622C284.876 493.278 283.644 491.838 282.78 490.302C281.948 488.766 281.532 486.926 281.532 484.782C281.532 481.614 282.46 479.182 284.316 477.486C286.204 475.758 288.796 474.894 292.092 474.894C295.612 474.894 298.06 475.918 299.436 477.966C300.812 479.982 301.596 482.558 301.788 485.694L294.924 486.702C294.86 484.654 294.62 483.15 294.204 482.19C293.82 481.198 293.036 480.702 291.852 480.702C290.988 480.702 290.316 481.038 289.836 481.71C289.356 482.35 289.116 483.118 289.116 484.014C289.116 485.294 289.388 486.382 289.932 487.278C290.508 488.142 291.404 489.102 292.62 490.158L296.556 493.614C298.412 495.246 299.868 496.974 300.924 498.798C301.98 500.59 302.508 502.702 302.508 505.134C302.508 506.99 302.092 508.654 301.26 510.126C300.428 511.566 299.244 512.702 297.708 513.534C296.204 514.366 294.46 514.782 292.476 514.782ZM306.294 475.374H313.542V489.054C315.558 487.038 317.83 486.03 320.358 486.03C321.926 486.03 323.126 486.622 323.958 487.806C324.79 488.99 325.206 490.51 325.206 492.366V514.254H318.006V493.518C318.006 492.75 317.878 492.19 317.622 491.838C317.366 491.454 316.934 491.262 316.326 491.262C315.526 491.262 314.598 491.662 313.542 492.462V514.254H306.294V475.374ZM338.843 514.734C335.835 514.734 333.515 513.934 331.883 512.334C330.283 510.734 329.483 508.414 329.483 505.374V495.39C329.483 492.35 330.283 490.03 331.883 488.43C333.515 486.83 335.835 486.03 338.843 486.03C341.851 486.03 344.155 486.83 345.755 488.43C347.387 490.03 348.203 492.35 348.203 495.39V505.374C348.203 508.414 347.387 510.734 345.755 512.334C344.155 513.934 341.851 514.734 338.843 514.734ZM338.891 509.838C339.723 509.838 340.283 509.518 340.571 508.878C340.891 508.206 341.051 507.214 341.051 505.902V494.91C341.051 493.598 340.891 492.606 340.571 491.934C340.283 491.262 339.723 490.926 338.891 490.926C338.027 490.926 337.435 491.278 337.115 491.982C336.795 492.654 336.635 493.63 336.635 494.91V505.902C336.635 507.182 336.795 508.158 337.115 508.83C337.435 509.502 338.027 509.838 338.891 509.838ZM357.308 514.734C355.708 514.734 354.476 514.142 353.612 512.958C352.78 511.774 352.364 510.254 352.364 508.398V486.51H359.612V507.39C359.612 508.158 359.74 508.734 359.996 509.118C360.284 509.502 360.748 509.694 361.388 509.694C362.06 509.694 362.908 509.342 363.932 508.638V486.51H371.18V514.254H363.932V511.662C361.724 513.71 359.516 514.734 357.308 514.734ZM376.52 475.374H383.72V514.254H376.52V475.374ZM394.888 514.734C390.536 514.734 388.36 511.678 388.36 505.566V495.39C388.36 492.542 388.904 490.27 389.992 488.574C391.08 486.878 392.712 486.03 394.888 486.03C396.712 486.03 398.472 486.766 400.168 488.238V475.374H407.416V514.254H400.168V512.19C398.472 513.886 396.712 514.734 394.888 514.734ZM397.864 509.934C398.568 509.934 399.336 509.662 400.168 509.118V491.454C399.336 490.974 398.568 490.734 397.864 490.734C397.096 490.734 396.536 491.07 396.184 491.742C395.832 492.382 395.656 493.246 395.656 494.334V506.094C395.656 508.654 396.392 509.934 397.864 509.934ZM429.891 498.846L422.307 475.374H429.747L433.923 489.054L437.763 475.374H445.011L437.523 498.846V514.254H429.891V498.846ZM456.03 514.734C453.022 514.734 450.702 513.934 449.07 512.334C447.47 510.734 446.67 508.414 446.67 505.374V495.39C446.67 492.35 447.47 490.03 449.07 488.43C450.702 486.83 453.022 486.03 456.03 486.03C459.038 486.03 461.342 486.83 462.942 488.43C464.574 490.03 465.39 492.35 465.39 495.39V505.374C465.39 508.414 464.574 510.734 462.942 512.334C461.342 513.934 459.038 514.734 456.03 514.734ZM456.078 509.838C456.91 509.838 457.47 509.518 457.758 508.878C458.078 508.206 458.238 507.214 458.238 505.902V494.91C458.238 493.598 458.078 492.606 457.758 491.934C457.47 491.262 456.91 490.926 456.078 490.926C455.214 490.926 454.622 491.278 454.302 491.982C453.982 492.654 453.822 493.63 453.822 494.91V505.902C453.822 507.182 453.982 508.158 454.302 508.83C454.622 509.502 455.214 509.838 456.078 509.838ZM474.496 514.734C472.896 514.734 471.664 514.142 470.8 512.958C469.968 511.774 469.552 510.254 469.552 508.398V486.51H476.8V507.39C476.8 508.158 476.928 508.734 477.184 509.118C477.472 509.502 477.936 509.694 478.576 509.694C479.248 509.694 480.096 509.342 481.12 508.638V486.51H488.368V514.254H481.12V511.662C478.912 513.71 476.704 514.734 474.496 514.734ZM516.603 514.782C512.475 514.782 509.547 513.678 507.819 511.47C506.091 509.23 505.227 506.014 505.227 501.822V487.902C505.227 483.614 506.075 480.382 507.771 478.206C509.499 475.998 512.443 474.894 516.603 474.894C520.571 474.894 523.371 475.87 525.003 477.822C526.667 479.742 527.499 482.51 527.499 486.126V489.39H519.819V485.79C519.819 484.638 519.755 483.71 519.627 483.006C519.531 482.302 519.243 481.726 518.763 481.278C518.315 480.798 517.611 480.558 516.651 480.558C515.211 480.558 514.283 481.022 513.867 481.95C513.451 482.878 513.243 484.238 513.243 486.03V503.694C513.243 505.518 513.483 506.878 513.963 507.774C514.443 508.67 515.339 509.118 516.651 509.118C517.995 509.118 518.859 508.67 519.243 507.774C519.627 506.846 519.819 505.486 519.819 503.694V499.902H527.499V503.118C527.499 506.83 526.683 509.71 525.051 511.758C523.419 513.774 520.603 514.782 516.603 514.782ZM531.998 486.51H539.246V490.974C540.206 489.31 541.134 488.094 542.03 487.326C542.958 486.558 544.03 486.174 545.246 486.174C545.534 486.174 545.902 486.206 546.35 486.27V493.662C545.518 493.278 544.654 493.086 543.758 493.086C541.998 493.086 540.494 493.982 539.246 495.774V514.254H531.998V486.51ZM558.404 514.734C555.364 514.734 553.044 513.902 551.444 512.238C549.876 510.574 549.092 508.174 549.092 505.038V495.726C549.092 492.59 549.892 490.19 551.492 488.526C553.092 486.862 555.396 486.03 558.404 486.03C561.508 486.03 563.78 486.862 565.22 488.526C566.66 490.19 567.38 492.654 567.38 495.918V500.766H556.292V506.142C556.292 507.326 556.468 508.19 556.82 508.734C557.204 509.278 557.748 509.55 558.452 509.55C559.892 509.55 560.612 508.51 560.612 506.43V503.742H567.332V506.142C567.332 508.926 566.564 511.054 565.028 512.526C563.492 513.998 561.284 514.734 558.404 514.734ZM560.612 497.31V494.622C560.612 493.406 560.436 492.542 560.084 492.03C559.732 491.486 559.172 491.214 558.404 491.214C557.668 491.214 557.124 491.502 556.772 492.078C556.452 492.654 556.292 493.678 556.292 495.15V497.31H560.612ZM577.267 514.734C575.987 514.734 574.867 514.414 573.907 513.774C572.947 513.134 572.211 512.302 571.699 511.278C571.219 510.222 570.979 509.134 570.979 508.014C570.979 505.87 571.507 504.11 572.563 502.734C573.619 501.358 574.883 500.286 576.355 499.518C577.859 498.75 579.843 497.918 582.307 497.022V494.43C582.307 493.438 582.163 492.686 581.875 492.174C581.619 491.662 581.139 491.406 580.435 491.406C579.731 491.406 579.235 491.63 578.947 492.078C578.659 492.526 578.483 493.166 578.419 493.998L578.275 495.918L571.459 495.63C571.587 492.334 572.435 489.918 574.003 488.382C575.571 486.814 577.923 486.03 581.059 486.03C583.779 486.03 585.827 486.782 587.203 488.286C588.579 489.79 589.267 491.854 589.267 494.478V507.39C589.267 509.566 589.427 511.854 589.747 514.254H583.267C583.139 513.326 582.931 511.998 582.643 510.27C582.259 511.55 581.603 512.622 580.675 513.486C579.779 514.318 578.643 514.734 577.267 514.734ZM579.859 509.598C580.339 509.598 580.787 509.438 581.203 509.118C581.651 508.798 582.019 508.43 582.307 508.014V500.382C580.803 501.246 579.651 502.142 578.851 503.07C578.051 503.998 577.651 505.134 577.651 506.478C577.651 507.47 577.843 508.238 578.227 508.782C578.611 509.326 579.155 509.598 579.859 509.598ZM602.222 514.59C599.438 514.59 597.502 513.966 596.414 512.718C595.358 511.47 594.83 509.566 594.83 507.006V491.262H592.094V486.51H594.83V478.158H602.174V486.51H606.206V491.262H602.174V506.286C602.174 507.918 602.99 508.734 604.622 508.734C605.486 508.734 606.174 508.67 606.686 508.542V514.206C604.99 514.462 603.502 514.59 602.222 514.59ZM619.154 514.734C616.114 514.734 613.794 513.902 612.194 512.238C610.626 510.574 609.842 508.174 609.842 505.038V495.726C609.842 492.59 610.642 490.19 612.242 488.526C613.842 486.862 616.146 486.03 619.154 486.03C622.258 486.03 624.53 486.862 625.97 488.526C627.41 490.19 628.13 492.654 628.13 495.918V500.766H617.042V506.142C617.042 507.326 617.218 508.19 617.57 508.734C617.954 509.278 618.498 509.55 619.202 509.55C620.642 509.55 621.362 508.51 621.362 506.43V503.742H628.082V506.142C628.082 508.926 627.314 511.054 625.778 512.526C624.242 513.998 622.034 514.734 619.154 514.734ZM621.362 497.31V494.622C621.362 493.406 621.186 492.542 620.834 492.03C620.482 491.486 619.922 491.214 619.154 491.214C618.418 491.214 617.874 491.502 617.522 492.078C617.202 492.654 617.042 493.678 617.042 495.15V497.31H621.362ZM197.544 545.374H206.328L213.816 584.254H206.52L205.08 575.71H198.936L197.448 584.254H190.008L197.544 545.374ZM204.312 570.814L201.96 555.166L199.656 570.814H204.312ZM217.324 556.51H224.524V559.294C226.764 557.118 229.004 556.03 231.244 556.03C232.844 556.03 234.06 556.622 234.892 557.806C235.756 558.99 236.188 560.51 236.188 562.366V584.254H228.94V563.518C228.94 562.75 228.812 562.19 228.556 561.838C228.3 561.454 227.868 561.262 227.26 561.262C226.524 561.262 225.612 561.646 224.524 562.414V584.254H217.324V556.51ZM259.044 545.374H267.828L275.316 584.254H268.02L266.58 575.71H260.436L258.948 584.254H251.508L259.044 545.374ZM265.812 570.814L263.46 555.166L261.156 570.814H265.812ZM287.512 584.734C284.472 584.734 282.168 583.886 280.6 582.19C279.032 580.494 278.248 578.11 278.248 575.038V565.678C278.248 562.574 279.032 560.19 280.6 558.526C282.168 556.862 284.472 556.03 287.512 556.03C290.488 556.03 292.728 556.734 294.232 558.142C295.768 559.55 296.536 561.662 296.536 564.478V567.118H289.576V564.286C289.576 563.07 289.416 562.238 289.096 561.79C288.776 561.31 288.264 561.07 287.56 561.07C286.792 561.07 286.248 561.358 285.928 561.934C285.64 562.51 285.496 563.518 285.496 564.958V575.902C285.496 577.342 285.656 578.334 285.976 578.878C286.328 579.422 286.856 579.694 287.56 579.694C288.296 579.694 288.808 579.438 289.096 578.926C289.416 578.414 289.576 577.598 289.576 576.478V573.118H296.536V576.19C296.536 578.974 295.768 581.102 294.232 582.574C292.696 584.014 290.456 584.734 287.512 584.734ZM309.403 584.734C306.363 584.734 304.059 583.886 302.491 582.19C300.923 580.494 300.139 578.11 300.139 575.038V565.678C300.139 562.574 300.923 560.19 302.491 558.526C304.059 556.862 306.363 556.03 309.403 556.03C312.379 556.03 314.619 556.734 316.123 558.142C317.659 559.55 318.427 561.662 318.427 564.478V567.118H311.467V564.286C311.467 563.07 311.307 562.238 310.987 561.79C310.667 561.31 310.155 561.07 309.451 561.07C308.683 561.07 308.139 561.358 307.819 561.934C307.531 562.51 307.387 563.518 307.387 564.958V575.902C307.387 577.342 307.547 578.334 307.867 578.878C308.219 579.422 308.747 579.694 309.451 579.694C310.187 579.694 310.699 579.438 310.987 578.926C311.307 578.414 311.467 577.598 311.467 576.478V573.118H318.427V576.19C318.427 578.974 317.659 581.102 316.123 582.574C314.587 584.014 312.347 584.734 309.403 584.734ZM331.389 584.734C328.381 584.734 326.061 583.934 324.429 582.334C322.829 580.734 322.029 578.414 322.029 575.374V565.39C322.029 562.35 322.829 560.03 324.429 558.43C326.061 556.83 328.381 556.03 331.389 556.03C334.397 556.03 336.701 556.83 338.301 558.43C339.933 560.03 340.749 562.35 340.749 565.39V575.374C340.749 578.414 339.933 580.734 338.301 582.334C336.701 583.934 334.397 584.734 331.389 584.734ZM331.437 579.838C332.269 579.838 332.829 579.518 333.117 578.878C333.437 578.206 333.597 577.214 333.597 575.902V564.91C333.597 563.598 333.437 562.606 333.117 561.934C332.829 561.262 332.269 560.926 331.437 560.926C330.573 560.926 329.981 561.278 329.661 561.982C329.341 562.654 329.181 563.63 329.181 564.91V575.902C329.181 577.182 329.341 578.158 329.661 578.83C329.981 579.502 330.573 579.838 331.437 579.838ZM349.855 584.734C348.255 584.734 347.023 584.142 346.159 582.958C345.327 581.774 344.911 580.254 344.911 578.398V556.51H352.159V577.39C352.159 578.158 352.287 578.734 352.543 579.118C352.831 579.502 353.295 579.694 353.935 579.694C354.607 579.694 355.455 579.342 356.479 578.638V556.51H363.727V584.254H356.479V581.662C354.271 583.71 352.063 584.734 349.855 584.734ZM368.73 556.51H375.93V559.294C378.17 557.118 380.41 556.03 382.65 556.03C384.25 556.03 385.466 556.622 386.298 557.806C387.162 558.99 387.594 560.51 387.594 562.366V584.254H380.346V563.518C380.346 562.75 380.218 562.19 379.962 561.838C379.706 561.454 379.274 561.262 378.666 561.262C377.93 561.262 377.018 561.646 375.93 562.414V584.254H368.73V556.51ZM400.706 584.59C397.922 584.59 395.986 583.966 394.898 582.718C393.842 581.47 393.314 579.566 393.314 577.006V561.262H390.578V556.51H393.314V548.158H400.658V556.51H404.69V561.262H400.658V576.286C400.658 577.918 401.474 578.734 403.106 578.734C403.97 578.734 404.658 578.67 405.17 578.542V584.206C403.474 584.462 401.986 584.59 400.706 584.59ZM412.934 567.982C415.334 566.094 417.238 564.046 418.646 561.838C420.086 559.598 420.806 557.262 420.806 554.83C420.806 552.334 419.798 551.086 417.782 551.086C416.918 551.086 416.23 551.342 415.718 551.854C415.238 552.366 414.998 553.054 414.998 553.918C414.998 554.686 415.158 555.55 415.478 556.51L408.902 557.998C408.422 556.558 408.182 555.166 408.182 553.822C408.182 551.038 409.03 548.862 410.726 547.294C412.422 545.694 414.822 544.894 417.926 544.894C421.126 544.894 423.59 545.742 425.318 547.438C427.046 549.134 427.91 551.55 427.91 554.686C427.91 560.19 425.11 565.102 419.51 569.422V574.126H412.934V567.982ZM412.694 577.294H419.798V584.254H412.694V577.294Z" fill="white"/>
<path d="M198.824 634.774H193.96L193.064 637.254H191.528L195.56 626.166H197.24L201.256 637.254H199.72L198.824 634.774ZM198.408 633.59L196.392 627.958L194.376 633.59H198.408ZM210.847 629.686H209.007V637.254H207.551V629.686H206.415V628.486H207.551V627.862C207.551 626.881 207.802 626.166 208.303 625.718C208.815 625.259 209.631 625.03 210.751 625.03V626.246C210.111 626.246 209.658 626.374 209.391 626.63C209.135 626.875 209.007 627.286 209.007 627.862V628.486H210.847V629.686ZM214.001 629.91C214.257 629.409 214.619 629.019 215.089 628.742C215.569 628.465 216.15 628.326 216.833 628.326V629.83H216.449C214.817 629.83 214.001 630.715 214.001 632.486V637.254H212.545V628.486H214.001V629.91ZM226.513 632.534C226.513 632.811 226.497 633.105 226.465 633.414H219.457C219.511 634.278 219.804 634.955 220.337 635.446C220.881 635.926 221.537 636.166 222.305 636.166C222.935 636.166 223.457 636.022 223.873 635.734C224.3 635.435 224.599 635.041 224.769 634.55H226.337C226.103 635.393 225.633 636.081 224.929 636.614C224.225 637.137 223.351 637.398 222.305 637.398C221.473 637.398 220.727 637.211 220.065 636.838C219.415 636.465 218.903 635.937 218.529 635.254C218.156 634.561 217.969 633.761 217.969 632.854C217.969 631.947 218.151 631.153 218.513 630.47C218.876 629.787 219.383 629.265 220.033 628.902C220.695 628.529 221.452 628.342 222.305 628.342C223.137 628.342 223.873 628.523 224.513 628.886C225.153 629.249 225.644 629.75 225.985 630.39C226.337 631.019 226.513 631.734 226.513 632.534ZM225.009 632.23C225.009 631.675 224.887 631.201 224.641 630.806C224.396 630.401 224.06 630.097 223.633 629.894C223.217 629.681 222.753 629.574 222.241 629.574C221.505 629.574 220.876 629.809 220.353 630.278C219.841 630.747 219.548 631.398 219.473 632.23H225.009ZM236.435 632.534C236.435 632.811 236.419 633.105 236.387 633.414H229.379C229.432 634.278 229.726 634.955 230.259 635.446C230.803 635.926 231.459 636.166 232.227 636.166C232.856 636.166 233.379 636.022 233.795 635.734C234.222 635.435 234.52 635.041 234.691 634.55H236.259C236.024 635.393 235.555 636.081 234.851 636.614C234.147 637.137 233.272 637.398 232.227 637.398C231.395 637.398 230.648 637.211 229.987 636.838C229.336 636.465 228.824 635.937 228.451 635.254C228.078 634.561 227.891 633.761 227.891 632.854C227.891 631.947 228.072 631.153 228.435 630.47C228.798 629.787 229.304 629.265 229.955 628.902C230.616 628.529 231.374 628.342 232.227 628.342C233.059 628.342 233.795 628.523 234.435 628.886C235.075 629.249 235.566 629.75 235.907 630.39C236.259 631.019 236.435 631.734 236.435 632.534ZM234.931 632.23C234.931 631.675 234.808 631.201 234.563 630.806C234.318 630.401 233.982 630.097 233.555 629.894C233.139 629.681 232.675 629.574 232.163 629.574C231.427 629.574 230.798 629.809 230.275 630.278C229.763 630.747 229.47 631.398 229.395 632.23H234.931ZM246.975 628.326C247.636 628.326 248.233 628.47 248.767 628.758C249.3 629.035 249.716 629.457 250.015 630.022C250.324 630.587 250.479 631.275 250.479 632.086V637.254H249.039V632.294C249.039 631.419 248.82 630.753 248.383 630.294C247.945 629.825 247.348 629.59 246.591 629.59C245.823 629.59 245.209 629.83 244.751 630.31C244.303 630.79 244.079 631.489 244.079 632.406V637.254H242.623V625.414H244.079V629.734C244.367 629.286 244.761 628.939 245.263 628.694C245.775 628.449 246.345 628.326 246.975 628.326ZM256.681 637.398C255.86 637.398 255.113 637.211 254.441 636.838C253.78 636.465 253.257 635.937 252.873 635.254C252.5 634.561 252.313 633.761 252.313 632.854C252.313 631.958 252.505 631.169 252.889 630.486C253.284 629.793 253.817 629.265 254.489 628.902C255.161 628.529 255.913 628.342 256.745 628.342C257.577 628.342 258.329 628.529 259.001 628.902C259.673 629.265 260.201 629.787 260.585 630.47C260.98 631.153 261.177 631.947 261.177 632.854C261.177 633.761 260.974 634.561 260.569 635.254C260.174 635.937 259.636 636.465 258.953 636.838C258.27 637.211 257.513 637.398 256.681 637.398ZM256.681 636.118C257.204 636.118 257.694 635.995 258.153 635.75C258.612 635.505 258.98 635.137 259.257 634.646C259.545 634.155 259.689 633.558 259.689 632.854C259.689 632.15 259.55 631.553 259.273 631.062C258.996 630.571 258.633 630.209 258.185 629.974C257.737 629.729 257.252 629.606 256.729 629.606C256.196 629.606 255.705 629.729 255.257 629.974C254.82 630.209 254.468 630.571 254.201 631.062C253.934 631.553 253.801 632.15 253.801 632.854C253.801 633.569 253.929 634.171 254.185 634.662C254.452 635.153 254.804 635.521 255.241 635.766C255.678 636.001 256.158 636.118 256.681 636.118ZM270.867 628.486V637.254H269.411V635.958C269.134 636.406 268.745 636.758 268.243 637.014C267.753 637.259 267.209 637.382 266.611 637.382C265.929 637.382 265.315 637.243 264.771 636.966C264.227 636.678 263.795 636.251 263.475 635.686C263.166 635.121 263.011 634.433 263.011 633.622V628.486H264.451V633.43C264.451 634.294 264.67 634.961 265.107 635.43C265.545 635.889 266.142 636.118 266.899 636.118C267.678 636.118 268.291 635.878 268.739 635.398C269.187 634.918 269.411 634.219 269.411 633.302V628.486H270.867ZM274.782 629.91C275.038 629.409 275.4 629.019 275.87 628.742C276.35 628.465 276.931 628.326 277.614 628.326V629.83H277.23C275.598 629.83 274.782 630.715 274.782 632.486V637.254H273.326V628.486H274.782V629.91ZM280.799 635.238L279.007 639.542H278.03L279.199 635.238H280.799ZM298.412 628.486L295.676 637.254H294.172L292.06 630.294L289.948 637.254H288.444L285.692 628.486H287.18L289.196 635.846L291.372 628.486H292.86L294.988 635.862L296.972 628.486H298.412ZM304.209 628.326C304.87 628.326 305.468 628.47 306.001 628.758C306.534 629.035 306.95 629.457 307.249 630.022C307.558 630.587 307.713 631.275 307.713 632.086V637.254H306.273V632.294C306.273 631.419 306.054 630.753 305.617 630.294C305.18 629.825 304.582 629.59 303.825 629.59C303.057 629.59 302.444 629.83 301.985 630.31C301.537 630.79 301.313 631.489 301.313 632.406V637.254H299.857V625.414H301.313V629.734C301.601 629.286 301.996 628.939 302.497 628.694C303.009 628.449 303.58 628.326 304.209 628.326ZM318.091 632.534C318.091 632.811 318.075 633.105 318.043 633.414H311.035C311.089 634.278 311.382 634.955 311.915 635.446C312.459 635.926 313.115 636.166 313.883 636.166C314.513 636.166 315.035 636.022 315.451 635.734C315.878 635.435 316.177 635.041 316.347 634.55H317.915C317.681 635.393 317.211 636.081 316.507 636.614C315.803 637.137 314.929 637.398 313.883 637.398C313.051 637.398 312.305 637.211 311.643 636.838C310.993 636.465 310.481 635.937 310.107 635.254C309.734 634.561 309.547 633.761 309.547 632.854C309.547 631.947 309.729 631.153 310.091 630.47C310.454 629.787 310.961 629.265 311.611 628.902C312.273 628.529 313.03 628.342 313.883 628.342C314.715 628.342 315.451 628.523 316.091 628.886C316.731 629.249 317.222 629.75 317.563 630.39C317.915 631.019 318.091 631.734 318.091 632.534ZM316.587 632.23C316.587 631.675 316.465 631.201 316.219 630.806C315.974 630.401 315.638 630.097 315.211 629.894C314.795 629.681 314.331 629.574 313.819 629.574C313.083 629.574 312.454 629.809 311.931 630.278C311.419 630.747 311.126 631.398 311.051 632.23H316.587ZM324.285 628.326C325.352 628.326 326.216 628.651 326.877 629.302C327.539 629.942 327.869 630.87 327.869 632.086V637.254H326.429V632.294C326.429 631.419 326.211 630.753 325.773 630.294C325.336 629.825 324.739 629.59 323.981 629.59C323.213 629.59 322.6 629.83 322.141 630.31C321.693 630.79 321.469 631.489 321.469 632.406V637.254H320.013V628.486H321.469V629.734C321.757 629.286 322.147 628.939 322.637 628.694C323.139 628.449 323.688 628.326 324.285 628.326ZM338.337 637.398C337.516 637.398 336.769 637.211 336.097 636.838C335.436 636.465 334.913 635.937 334.529 635.254C334.156 634.561 333.969 633.761 333.969 632.854C333.969 631.958 334.161 631.169 334.545 630.486C334.94 629.793 335.473 629.265 336.145 628.902C336.817 628.529 337.569 628.342 338.401 628.342C339.233 628.342 339.985 628.529 340.657 628.902C341.329 629.265 341.857 629.787 342.241 630.47C342.636 631.153 342.833 631.947 342.833 632.854C342.833 633.761 342.631 634.561 342.225 635.254C341.831 635.937 341.292 636.465 340.609 636.838C339.927 637.211 339.169 637.398 338.337 637.398ZM338.337 636.118C338.86 636.118 339.351 635.995 339.809 635.75C340.268 635.505 340.636 635.137 340.913 634.646C341.201 634.155 341.345 633.558 341.345 632.854C341.345 632.15 341.207 631.553 340.929 631.062C340.652 630.571 340.289 630.209 339.841 629.974C339.393 629.729 338.908 629.606 338.385 629.606C337.852 629.606 337.361 629.729 336.913 629.974C336.476 630.209 336.124 630.571 335.857 631.062C335.591 631.553 335.457 632.15 335.457 632.854C335.457 633.569 335.585 634.171 335.841 634.662C336.108 635.153 336.46 635.521 336.897 635.766C337.335 636.001 337.815 636.118 338.337 636.118ZM352.524 628.486V637.254H351.068V635.958C350.79 636.406 350.401 636.758 349.9 637.014C349.409 637.259 348.865 637.382 348.268 637.382C347.585 637.382 346.972 637.243 346.428 636.966C345.884 636.678 345.452 636.251 345.132 635.686C344.822 635.121 344.668 634.433 344.668 633.622V628.486H346.108V633.43C346.108 634.294 346.326 634.961 346.764 635.43C347.201 635.889 347.798 636.118 348.556 636.118C349.334 636.118 349.948 635.878 350.396 635.398C350.844 634.918 351.068 634.219 351.068 633.302V628.486H352.524ZM356.438 629.91C356.694 629.409 357.057 629.019 357.526 628.742C358.006 628.465 358.587 628.326 359.27 628.326V629.83H358.886C357.254 629.83 356.438 630.715 356.438 632.486V637.254H354.982V628.486H356.438V629.91ZM366.672 630.102C366.96 629.601 367.387 629.185 367.952 628.854C368.528 628.513 369.195 628.342 369.952 628.342C370.731 628.342 371.435 628.529 372.064 628.902C372.704 629.275 373.206 629.803 373.568 630.486C373.931 631.158 374.112 631.942 374.112 632.838C374.112 633.723 373.931 634.513 373.568 635.206C373.206 635.899 372.704 636.438 372.064 636.822C371.435 637.206 370.731 637.398 369.952 637.398C369.206 637.398 368.544 637.233 367.968 636.902C367.403 636.561 366.971 636.139 366.672 635.638V641.414H365.216V628.486H366.672V630.102ZM372.624 632.838C372.624 632.177 372.491 631.601 372.224 631.11C371.958 630.619 371.595 630.246 371.136 629.99C370.688 629.734 370.192 629.606 369.648 629.606C369.115 629.606 368.619 629.739 368.16 630.006C367.712 630.262 367.35 630.641 367.072 631.142C366.806 631.633 366.672 632.203 366.672 632.854C366.672 633.515 366.806 634.097 367.072 634.598C367.35 635.089 367.712 635.467 368.16 635.734C368.619 635.99 369.115 636.118 369.648 636.118C370.192 636.118 370.688 635.99 371.136 635.734C371.595 635.467 371.958 635.089 372.224 634.598C372.491 634.097 372.624 633.51 372.624 632.838ZM379.853 637.398C379.032 637.398 378.285 637.211 377.613 636.838C376.952 636.465 376.429 635.937 376.045 635.254C375.672 634.561 375.485 633.761 375.485 632.854C375.485 631.958 375.677 631.169 376.061 630.486C376.456 629.793 376.989 629.265 377.661 628.902C378.333 628.529 379.085 628.342 379.917 628.342C380.749 628.342 381.501 628.529 382.173 628.902C382.845 629.265 383.373 629.787 383.757 630.47C384.152 631.153 384.349 631.947 384.349 632.854C384.349 633.761 384.146 634.561 383.741 635.254C383.346 635.937 382.808 636.465 382.125 636.838C381.442 637.211 380.685 637.398 379.853 637.398ZM379.853 636.118C380.376 636.118 380.866 635.995 381.325 635.75C381.784 635.505 382.152 635.137 382.429 634.646C382.717 634.155 382.861 633.558 382.861 632.854C382.861 632.15 382.722 631.553 382.445 631.062C382.168 630.571 381.805 630.209 381.357 629.974C380.909 629.729 380.424 629.606 379.901 629.606C379.368 629.606 378.877 629.729 378.429 629.974C377.992 630.209 377.64 630.571 377.373 631.062C377.106 631.553 376.973 632.15 376.973 632.854C376.973 633.569 377.101 634.171 377.357 634.662C377.624 635.153 377.976 635.521 378.413 635.766C378.85 636.001 379.33 636.118 379.853 636.118ZM397.943 628.486L395.207 637.254H393.703L391.591 630.294L389.479 637.254H387.975L385.223 628.486H386.711L388.727 635.846L390.903 628.486H392.391L394.519 635.862L396.503 628.486H397.943ZM407.388 632.534C407.388 632.811 407.372 633.105 407.34 633.414H400.332C400.386 634.278 400.679 634.955 401.212 635.446C401.756 635.926 402.412 636.166 403.18 636.166C403.81 636.166 404.332 636.022 404.748 635.734C405.175 635.435 405.474 635.041 405.644 634.55H407.212C406.978 635.393 406.508 636.081 405.804 636.614C405.1 637.137 404.226 637.398 403.18 637.398C402.348 637.398 401.602 637.211 400.94 636.838C400.29 636.465 399.778 635.937 399.404 635.254C399.031 634.561 398.844 633.761 398.844 632.854C398.844 631.947 399.026 631.153 399.388 630.47C399.751 629.787 400.258 629.265 400.908 628.902C401.57 628.529 402.327 628.342 403.18 628.342C404.012 628.342 404.748 628.523 405.388 628.886C406.028 629.249 406.519 629.75 406.86 630.39C407.212 631.019 407.388 631.734 407.388 632.534ZM405.884 632.23C405.884 631.675 405.762 631.201 405.516 630.806C405.271 630.401 404.935 630.097 404.508 629.894C404.092 629.681 403.628 629.574 403.116 629.574C402.38 629.574 401.751 629.809 401.228 630.278C400.716 630.747 400.423 631.398 400.348 632.23H405.884ZM410.766 629.91C411.022 629.409 411.385 629.019 411.854 628.742C412.334 628.465 412.915 628.326 413.598 628.326V629.83H413.214C411.582 629.83 410.766 630.715 410.766 632.486V637.254H409.31V628.486H410.766V629.91ZM423.369 637.398C422.547 637.398 421.801 637.211 421.129 636.838C420.467 636.465 419.945 635.937 419.561 635.254C419.187 634.561 419.001 633.761 419.001 632.854C419.001 631.958 419.193 631.169 419.577 630.486C419.971 629.793 420.505 629.265 421.177 628.902C421.849 628.529 422.601 628.342 423.433 628.342C424.265 628.342 425.017 628.529 425.689 628.902C426.361 629.265 426.889 629.787 427.273 630.47C427.667 631.153 427.865 631.947 427.865 632.854C427.865 633.761 427.662 634.561 427.257 635.254C426.862 635.937 426.323 636.465 425.641 636.838C424.958 637.211 424.201 637.398 423.369 637.398ZM423.369 636.118C423.891 636.118 424.382 635.995 424.841 635.75C425.299 635.505 425.667 635.137 425.945 634.646C426.233 634.155 426.377 633.558 426.377 632.854C426.377 632.15 426.238 631.553 425.961 631.062C425.683 630.571 425.321 630.209 424.873 629.974C424.425 629.729 423.939 629.606 423.417 629.606C422.883 629.606 422.393 629.729 421.945 629.974C421.507 630.209 421.155 630.571 420.889 631.062C420.622 631.553 420.489 632.15 420.489 632.854C420.489 633.569 420.617 634.171 420.873 634.662C421.139 635.153 421.491 635.521 421.929 635.766C422.366 636.001 422.846 636.118 423.369 636.118ZM433.347 629.686H431.507V637.254H430.051V629.686H428.915V628.486H430.051V627.862C430.051 626.881 430.302 626.166 430.803 625.718C431.315 625.259 432.131 625.03 433.251 625.03V626.246C432.611 626.246 432.158 626.374 431.891 626.63C431.635 626.875 431.507 627.286 431.507 627.862V628.486H433.347V629.686ZM438.766 632.854C438.766 631.947 438.947 631.158 439.31 630.486C439.673 629.803 440.174 629.275 440.814 628.902C441.465 628.529 442.206 628.342 443.038 628.342C444.115 628.342 445.001 628.603 445.694 629.126C446.398 629.649 446.862 630.374 447.086 631.302H445.518C445.369 630.769 445.075 630.347 444.638 630.038C444.211 629.729 443.678 629.574 443.038 629.574C442.206 629.574 441.534 629.862 441.022 630.438C440.51 631.003 440.254 631.809 440.254 632.854C440.254 633.91 440.51 634.726 441.022 635.302C441.534 635.878 442.206 636.166 443.038 636.166C443.678 636.166 444.211 636.017 444.638 635.718C445.065 635.419 445.358 634.993 445.518 634.438H447.086C446.851 635.334 446.382 636.054 445.678 636.598C444.974 637.131 444.094 637.398 443.038 637.398C442.206 637.398 441.465 637.211 440.814 636.838C440.174 636.465 439.673 635.937 439.31 635.254C438.947 634.571 438.766 633.771 438.766 632.854ZM453.381 628.326C454.042 628.326 454.64 628.47 455.173 628.758C455.706 629.035 456.122 629.457 456.421 630.022C456.73 630.587 456.885 631.275 456.885 632.086V637.254H455.445V632.294C455.445 631.419 455.226 630.753 454.789 630.294C454.352 629.825 453.754 629.59 452.997 629.59C452.229 629.59 451.616 629.83 451.157 630.31C450.709 630.79 450.485 631.489 450.485 632.406V637.254H449.029V625.414H450.485V629.734C450.773 629.286 451.168 628.939 451.669 628.694C452.181 628.449 452.752 628.326 453.381 628.326ZM463.087 637.398C462.266 637.398 461.519 637.211 460.847 636.838C460.186 636.465 459.663 635.937 459.279 635.254C458.906 634.561 458.719 633.761 458.719 632.854C458.719 631.958 458.911 631.169 459.295 630.486C459.69 629.793 460.223 629.265 460.895 628.902C461.567 628.529 462.319 628.342 463.151 628.342C463.983 628.342 464.735 628.529 465.407 628.902C466.079 629.265 466.607 629.787 466.991 630.47C467.386 631.153 467.583 631.947 467.583 632.854C467.583 633.761 467.381 634.561 466.975 635.254C466.581 635.937 466.042 636.465 465.359 636.838C464.677 637.211 463.919 637.398 463.087 637.398ZM463.087 636.118C463.61 636.118 464.101 635.995 464.559 635.75C465.018 635.505 465.386 635.137 465.663 634.646C465.951 634.155 466.095 633.558 466.095 632.854C466.095 632.15 465.957 631.553 465.679 631.062C465.402 630.571 465.039 630.209 464.591 629.974C464.143 629.729 463.658 629.606 463.135 629.606C462.602 629.606 462.111 629.729 461.663 629.974C461.226 630.209 460.874 630.571 460.607 631.062C460.341 631.553 460.207 632.15 460.207 632.854C460.207 633.569 460.335 634.171 460.591 634.662C460.858 635.153 461.21 635.521 461.647 635.766C462.085 636.001 462.565 636.118 463.087 636.118ZM470.25 627.062C469.972 627.062 469.738 626.966 469.546 626.774C469.354 626.582 469.258 626.347 469.258 626.07C469.258 625.793 469.354 625.558 469.546 625.366C469.738 625.174 469.972 625.078 470.25 625.078C470.516 625.078 470.74 625.174 470.922 625.366C471.114 625.558 471.21 625.793 471.21 626.07C471.21 626.347 471.114 626.582 470.922 626.774C470.74 626.966 470.516 627.062 470.25 627.062ZM470.954 628.486V637.254H469.498V628.486H470.954ZM472.891 632.854C472.891 631.947 473.072 631.158 473.435 630.486C473.798 629.803 474.299 629.275 474.939 628.902C475.59 628.529 476.331 628.342 477.163 628.342C478.24 628.342 479.126 628.603 479.819 629.126C480.523 629.649 480.987 630.374 481.211 631.302H479.643C479.494 630.769 479.2 630.347 478.763 630.038C478.336 629.729 477.803 629.574 477.163 629.574C476.331 629.574 475.659 629.862 475.147 630.438C474.635 631.003 474.379 631.809 474.379 632.854C474.379 633.91 474.635 634.726 475.147 635.302C475.659 635.878 476.331 636.166 477.163 636.166C477.803 636.166 478.336 636.017 478.763 635.718C479.19 635.419 479.483 634.993 479.643 634.438H481.211C480.976 635.334 480.507 636.054 479.803 636.598C479.099 637.131 478.219 637.398 477.163 637.398C476.331 637.398 475.59 637.211 474.939 636.838C474.299 636.465 473.798 635.937 473.435 635.254C473.072 634.571 472.891 633.771 472.891 632.854ZM491.154 632.534C491.154 632.811 491.138 633.105 491.106 633.414H484.098C484.151 634.278 484.445 634.955 484.978 635.446C485.522 635.926 486.178 636.166 486.946 636.166C487.575 636.166 488.098 636.022 488.514 635.734C488.941 635.435 489.239 635.041 489.41 634.55H490.978C490.743 635.393 490.274 636.081 489.57 636.614C488.866 637.137 487.991 637.398 486.946 637.398C486.114 637.398 485.367 637.211 484.706 636.838C484.055 636.465 483.543 635.937 483.17 635.254C482.797 634.561 482.61 633.761 482.61 632.854C482.61 631.947 482.791 631.153 483.154 630.47C483.517 629.787 484.023 629.265 484.674 628.902C485.335 628.529 486.093 628.342 486.946 628.342C487.778 628.342 488.514 628.523 489.154 628.886C489.794 629.249 490.285 629.75 490.626 630.39C490.978 631.019 491.154 631.734 491.154 632.534ZM489.65 632.23C489.65 631.675 489.527 631.201 489.282 630.806C489.037 630.401 488.701 630.097 488.274 629.894C487.858 629.681 487.394 629.574 486.882 629.574C486.146 629.574 485.517 629.809 484.994 630.278C484.482 630.747 484.189 631.398 484.114 632.23H489.65ZM498.093 627.062C497.816 627.062 497.581 626.966 497.389 626.774C497.197 626.582 497.101 626.347 497.101 626.07C497.101 625.793 497.197 625.558 497.389 625.366C497.581 625.174 497.816 625.078 498.093 625.078C498.36 625.078 498.584 625.174 498.765 625.366C498.957 625.558 499.053 625.793 499.053 626.07C499.053 626.347 498.957 626.582 498.765 626.774C498.584 626.966 498.36 627.062 498.093 627.062ZM498.797 628.486V637.254H497.341V628.486H498.797ZM504.383 637.398C503.711 637.398 503.108 637.286 502.575 637.062C502.042 636.827 501.62 636.507 501.311 636.102C501.002 635.686 500.831 635.211 500.799 634.678H502.303C502.346 635.115 502.548 635.473 502.911 635.75C503.284 636.027 503.77 636.166 504.367 636.166C504.922 636.166 505.359 636.043 505.679 635.798C505.999 635.553 506.159 635.243 506.159 634.87C506.159 634.486 505.988 634.203 505.647 634.022C505.306 633.83 504.778 633.643 504.063 633.462C503.412 633.291 502.879 633.121 502.463 632.95C502.058 632.769 501.706 632.507 501.407 632.166C501.119 631.814 500.975 631.355 500.975 630.79C500.975 630.342 501.108 629.931 501.375 629.558C501.642 629.185 502.02 628.891 502.511 628.678C503.002 628.454 503.562 628.342 504.191 628.342C505.162 628.342 505.946 628.587 506.543 629.078C507.14 629.569 507.46 630.241 507.503 631.094H506.047C506.015 630.635 505.828 630.267 505.487 629.99C505.156 629.713 504.708 629.574 504.143 629.574C503.62 629.574 503.204 629.686 502.895 629.91C502.586 630.134 502.431 630.427 502.431 630.79C502.431 631.078 502.522 631.318 502.703 631.51C502.895 631.691 503.13 631.841 503.407 631.958C503.695 632.065 504.09 632.187 504.591 632.326C505.22 632.497 505.732 632.667 506.127 632.838C506.522 632.998 506.858 633.243 507.135 633.574C507.423 633.905 507.572 634.337 507.583 634.87C507.583 635.35 507.45 635.782 507.183 636.166C506.916 636.55 506.538 636.854 506.047 637.078C505.567 637.291 505.012 637.398 504.383 637.398ZM521.68 628.486V637.254H520.224V635.958C519.947 636.406 519.557 636.758 519.056 637.014C518.565 637.259 518.021 637.382 517.424 637.382C516.741 637.382 516.128 637.243 515.584 636.966C515.04 636.678 514.608 636.251 514.288 635.686C513.979 635.121 513.824 634.433 513.824 633.622V628.486H515.264V633.43C515.264 634.294 515.483 634.961 515.92 635.43C516.357 635.889 516.955 636.118 517.712 636.118C518.491 636.118 519.104 635.878 519.552 635.398C520 634.918 520.224 634.219 520.224 633.302V628.486H521.68ZM528.41 628.326C529.477 628.326 530.341 628.651 531.002 629.302C531.664 629.942 531.994 630.87 531.994 632.086V637.254H530.554V632.294C530.554 631.419 530.336 630.753 529.898 630.294C529.461 629.825 528.864 629.59 528.106 629.59C527.338 629.59 526.725 629.83 526.266 630.31C525.818 630.79 525.594 631.489 525.594 632.406V637.254H524.138V628.486H525.594V629.734C525.882 629.286 526.272 628.939 526.762 628.694C527.264 628.449 527.813 628.326 528.41 628.326ZM536.149 629.686V634.854C536.149 635.281 536.239 635.585 536.421 635.766C536.602 635.937 536.917 636.022 537.365 636.022H538.437V637.254H537.125C536.314 637.254 535.706 637.067 535.301 636.694C534.895 636.321 534.693 635.707 534.693 634.854V629.686H533.557V628.486H534.693V626.278H536.149V628.486H538.437V629.686H536.149ZM541.657 629.91C541.913 629.409 542.275 629.019 542.745 628.742C543.225 628.465 543.806 628.326 544.489 628.326V629.83H544.105C542.473 629.83 541.657 630.715 541.657 632.486V637.254H540.201V628.486H541.657V629.91ZM545.626 632.838C545.626 631.942 545.807 631.158 546.17 630.486C546.532 629.803 547.028 629.275 547.658 628.902C548.298 628.529 549.007 628.342 549.786 628.342C550.554 628.342 551.22 628.507 551.786 628.838C552.351 629.169 552.772 629.585 553.05 630.086V628.486H554.522V637.254H553.05V635.622C552.762 636.134 552.33 636.561 551.754 636.902C551.188 637.233 550.527 637.398 549.77 637.398C548.991 637.398 548.287 637.206 547.658 636.822C547.028 636.438 546.532 635.899 546.17 635.206C545.807 634.513 545.626 633.723 545.626 632.838ZM553.05 632.854C553.05 632.193 552.916 631.617 552.65 631.126C552.383 630.635 552.02 630.262 551.562 630.006C551.114 629.739 550.618 629.606 550.074 629.606C549.53 629.606 549.034 629.734 548.586 629.99C548.138 630.246 547.78 630.619 547.514 631.11C547.247 631.601 547.114 632.177 547.114 632.838C547.114 633.51 547.247 634.097 547.514 634.598C547.78 635.089 548.138 635.467 548.586 635.734C549.034 635.99 549.53 636.118 550.074 636.118C550.618 636.118 551.114 635.99 551.562 635.734C552.02 635.467 552.383 635.089 552.65 634.598C552.916 634.097 553.05 633.515 553.05 632.854ZM567.526 628.326C568.209 628.326 568.817 628.47 569.35 628.758C569.883 629.035 570.305 629.457 570.614 630.022C570.923 630.587 571.078 631.275 571.078 632.086V637.254H569.638V632.294C569.638 631.419 569.419 630.753 568.982 630.294C568.555 629.825 567.974 629.59 567.238 629.59C566.481 629.59 565.878 629.835 565.43 630.326C564.982 630.806 564.758 631.505 564.758 632.422V637.254H563.318V632.294C563.318 631.419 563.099 630.753 562.662 630.294C562.235 629.825 561.654 629.59 560.918 629.59C560.161 629.59 559.558 629.835 559.11 630.326C558.662 630.806 558.438 631.505 558.438 632.422V637.254H556.982V628.486H558.438V629.75C558.726 629.291 559.11 628.939 559.59 628.694C560.081 628.449 560.619 628.326 561.206 628.326C561.942 628.326 562.593 628.491 563.158 628.822C563.723 629.153 564.145 629.638 564.422 630.278C564.667 629.659 565.073 629.179 565.638 628.838C566.203 628.497 566.833 628.326 567.526 628.326ZM584.01 628.326C584.693 628.326 585.301 628.47 585.834 628.758C586.368 629.035 586.789 629.457 587.098 630.022C587.408 630.587 587.562 631.275 587.562 632.086V637.254H586.122V632.294C586.122 631.419 585.904 630.753 585.466 630.294C585.04 629.825 584.458 629.59 583.722 629.59C582.965 629.59 582.362 629.835 581.914 630.326C581.466 630.806 581.242 631.505 581.242 632.422V637.254H579.802V632.294C579.802 631.419 579.584 630.753 579.146 630.294C578.72 629.825 578.138 629.59 577.402 629.59C576.645 629.59 576.042 629.835 575.594 630.326C575.146 630.806 574.922 631.505 574.922 632.422V637.254H573.466V628.486H574.922V629.75C575.21 629.291 575.594 628.939 576.074 628.694C576.565 628.449 577.104 628.326 577.69 628.326C578.426 628.326 579.077 628.491 579.642 628.822C580.208 629.153 580.629 629.638 580.906 630.278C581.152 629.659 581.557 629.179 582.122 628.838C582.688 628.497 583.317 628.326 584.01 628.326ZM597.951 632.534C597.951 632.811 597.935 633.105 597.903 633.414H590.895C590.948 634.278 591.241 634.955 591.775 635.446C592.319 635.926 592.975 636.166 593.743 636.166C594.372 636.166 594.895 636.022 595.311 635.734C595.737 635.435 596.036 635.041 596.207 634.55H597.775C597.54 635.393 597.071 636.081 596.367 636.614C595.663 637.137 594.788 637.398 593.743 637.398C592.911 637.398 592.164 637.211 591.503 636.838C590.852 636.465 590.34 635.937 589.967 635.254C589.593 634.561 589.407 633.761 589.407 632.854C589.407 631.947 589.588 631.153 589.951 630.47C590.313 629.787 590.82 629.265 591.471 628.902C592.132 628.529 592.889 628.342 593.743 628.342C594.575 628.342 595.311 628.523 595.951 628.886C596.591 629.249 597.081 629.75 597.423 630.39C597.775 631.019 597.951 631.734 597.951 632.534ZM596.447 632.23C596.447 631.675 596.324 631.201 596.079 630.806C595.833 630.401 595.497 630.097 595.071 629.894C594.655 629.681 594.191 629.574 593.679 629.574C592.943 629.574 592.313 629.809 591.791 630.278C591.279 630.747 590.985 631.398 590.911 632.23H596.447ZM601.329 625.414V637.254H599.873V625.414H601.329ZM605.266 625.414V637.254H603.81V625.414H605.266ZM615.748 632.534C615.748 632.811 615.732 633.105 615.7 633.414H608.692C608.745 634.278 609.038 634.955 609.572 635.446C610.116 635.926 610.772 636.166 611.54 636.166C612.169 636.166 612.692 636.022 613.108 635.734C613.534 635.435 613.833 635.041 614.004 634.55H615.572C615.337 635.393 614.868 636.081 614.164 636.614C613.46 637.137 612.585 637.398 611.54 637.398C610.708 637.398 609.961 637.211 609.3 636.838C608.649 636.465 608.137 635.937 607.764 635.254C607.39 634.561 607.204 633.761 607.204 632.854C607.204 631.947 607.385 631.153 607.748 630.47C608.11 629.787 608.617 629.265 609.268 628.902C609.929 628.529 610.686 628.342 611.54 628.342C612.372 628.342 613.108 628.523 613.748 628.886C614.388 629.249 614.878 629.75 615.22 630.39C615.572 631.019 615.748 631.734 615.748 632.534ZM614.244 632.23C614.244 631.675 614.121 631.201 613.876 630.806C613.63 630.401 613.294 630.097 612.868 629.894C612.452 629.681 611.988 629.574 611.476 629.574C610.74 629.574 610.11 629.809 609.588 630.278C609.076 630.747 608.782 631.398 608.708 632.23H614.244ZM617.126 632.838C617.126 631.942 617.307 631.158 617.67 630.486C618.032 629.803 618.528 629.275 619.158 628.902C619.798 628.529 620.512 628.342 621.302 628.342C621.984 628.342 622.619 628.502 623.206 628.822C623.792 629.131 624.24 629.542 624.55 630.054V625.414H626.022V637.254H624.55V635.606C624.262 636.129 623.835 636.561 623.27 636.902C622.704 637.233 622.043 637.398 621.286 637.398C620.507 637.398 619.798 637.206 619.158 636.822C618.528 636.438 618.032 635.899 617.67 635.206C617.307 634.513 617.126 633.723 617.126 632.838ZM624.55 632.854C624.55 632.193 624.416 631.617 624.15 631.126C623.883 630.635 623.52 630.262 623.062 630.006C622.614 629.739 622.118 629.606 621.574 629.606C621.03 629.606 620.534 629.734 620.086 629.99C619.638 630.246 619.28 630.619 619.014 631.11C618.747 631.601 618.614 632.177 618.614 632.838C618.614 633.51 618.747 634.097 619.014 634.598C619.28 635.089 619.638 635.467 620.086 635.734C620.534 635.99 621.03 636.118 621.574 636.118C622.118 636.118 622.614 635.99 623.062 635.734C623.52 635.467 623.883 635.089 624.15 634.598C624.416 634.097 624.55 633.515 624.55 632.854ZM632.204 632.838C632.204 631.942 632.385 631.158 632.748 630.486C633.11 629.803 633.606 629.275 634.236 628.902C634.876 628.529 635.585 628.342 636.364 628.342C637.132 628.342 637.798 628.507 638.364 628.838C638.929 629.169 639.35 629.585 639.628 630.086V628.486H641.1V637.254H639.628V635.622C639.34 636.134 638.908 636.561 638.332 636.902C637.766 637.233 637.105 637.398 636.348 637.398C635.569 637.398 634.865 637.206 634.236 636.822C633.606 636.438 633.11 635.899 632.748 635.206C632.385 634.513 632.204 633.723 632.204 632.838ZM639.628 632.854C639.628 632.193 639.494 631.617 639.228 631.126C638.961 630.635 638.598 630.262 638.14 630.006C637.692 629.739 637.196 629.606 636.652 629.606C636.108 629.606 635.612 629.734 635.164 629.99C634.716 630.246 634.358 630.619 634.092 631.11C633.825 631.601 633.692 632.177 633.692 632.838C633.692 633.51 633.825 634.097 634.092 634.598C634.358 635.089 634.716 635.467 635.164 635.734C635.612 635.99 636.108 636.118 636.652 636.118C637.196 636.118 637.692 635.99 638.14 635.734C638.598 635.467 638.961 635.089 639.228 634.598C639.494 634.097 639.628 633.515 639.628 632.854ZM647.832 628.326C648.899 628.326 649.763 628.651 650.424 629.302C651.085 629.942 651.416 630.87 651.416 632.086V637.254H649.976V632.294C649.976 631.419 649.757 630.753 649.32 630.294C648.883 629.825 648.285 629.59 647.528 629.59C646.76 629.59 646.147 629.83 645.688 630.31C645.24 630.79 645.016 631.489 645.016 632.406V637.254H643.56V628.486H645.016V629.734C645.304 629.286 645.693 628.939 646.184 628.694C646.685 628.449 647.235 628.326 647.832 628.326ZM653.251 632.838C653.251 631.942 653.432 631.158 653.795 630.486C654.157 629.803 654.653 629.275 655.283 628.902C655.923 628.529 656.637 628.342 657.427 628.342C658.109 628.342 658.744 628.502 659.331 628.822C659.917 629.131 660.365 629.542 660.675 630.054V625.414H662.147V637.254H660.675V635.606C660.387 636.129 659.96 636.561 659.395 636.902C658.829 637.233 658.168 637.398 657.411 637.398C656.632 637.398 655.923 637.206 655.283 636.822C654.653 636.438 654.157 635.899 653.795 635.206C653.432 634.513 653.251 633.723 653.251 632.838ZM660.675 632.854C660.675 632.193 660.541 631.617 660.275 631.126C660.008 630.635 659.645 630.262 659.187 630.006C658.739 629.739 658.243 629.606 657.699 629.606C657.155 629.606 656.659 629.734 656.211 629.99C655.763 630.246 655.405 630.619 655.139 631.11C654.872 631.601 654.739 632.177 654.739 632.838C654.739 633.51 654.872 634.097 655.139 634.598C655.405 635.089 655.763 635.467 656.211 635.734C656.659 635.99 657.155 636.118 657.699 636.118C658.243 636.118 658.739 635.99 659.187 635.734C659.645 635.467 660.008 635.089 660.275 634.598C660.541 634.097 660.675 633.515 660.675 632.854ZM680.553 628.486L677.817 637.254H676.313L674.201 630.294L672.089 637.254H670.585L667.833 628.486H669.321L671.337 635.846L673.513 628.486H675.001L677.129 635.862L679.113 628.486H680.553ZM686.35 628.326C687.011 628.326 687.608 628.47 688.142 628.758C688.675 629.035 689.091 629.457 689.39 630.022C689.699 630.587 689.854 631.275 689.854 632.086V637.254H688.414V632.294C688.414 631.419 688.195 630.753 687.758 630.294C687.32 629.825 686.723 629.59 685.966 629.59C685.198 629.59 684.584 629.83 684.126 630.31C683.678 630.79 683.454 631.489 683.454 632.406V637.254H681.998V625.414H683.454V629.734C683.742 629.286 684.136 628.939 684.638 628.694C685.15 628.449 685.72 628.326 686.35 628.326ZM700.232 632.534C700.232 632.811 700.216 633.105 700.184 633.414H693.176C693.229 634.278 693.523 634.955 694.056 635.446C694.6 635.926 695.256 636.166 696.024 636.166C696.653 636.166 697.176 636.022 697.592 635.734C698.019 635.435 698.317 635.041 698.488 634.55H700.056C699.821 635.393 699.352 636.081 698.648 636.614C697.944 637.137 697.069 637.398 696.024 637.398C695.192 637.398 694.445 637.211 693.784 636.838C693.133 636.465 692.621 635.937 692.248 635.254C691.875 634.561 691.688 633.761 691.688 632.854C691.688 631.947 691.869 631.153 692.232 630.47C692.595 629.787 693.101 629.265 693.752 628.902C694.413 628.529 695.171 628.342 696.024 628.342C696.856 628.342 697.592 628.523 698.232 628.886C698.872 629.249 699.363 629.75 699.704 630.39C700.056 631.019 700.232 631.734 700.232 632.534ZM698.728 632.23C698.728 631.675 698.605 631.201 698.36 630.806C698.115 630.401 697.779 630.097 697.352 629.894C696.936 629.681 696.472 629.574 695.96 629.574C695.224 629.574 694.595 629.809 694.072 630.278C693.56 630.747 693.267 631.398 693.192 632.23H698.728ZM706.426 628.326C707.493 628.326 708.357 628.651 709.018 629.302C709.679 629.942 710.01 630.87 710.01 632.086V637.254H708.57V632.294C708.57 631.419 708.351 630.753 707.914 630.294C707.477 629.825 706.879 629.59 706.122 629.59C705.354 629.59 704.741 629.83 704.282 630.31C703.834 630.79 703.61 631.489 703.61 632.406V637.254H702.154V628.486H703.61V629.734C703.898 629.286 704.287 628.939 704.778 628.694C705.279 628.449 705.829 628.326 706.426 628.326ZM720.926 628.326C721.993 628.326 722.857 628.651 723.518 629.302C724.179 629.942 724.51 630.87 724.51 632.086V637.254H723.07V632.294C723.07 631.419 722.851 630.753 722.414 630.294C721.977 629.825 721.379 629.59 720.622 629.59C719.854 629.59 719.241 629.83 718.782 630.31C718.334 630.79 718.11 631.489 718.11 632.406V637.254H716.654V628.486H718.11V629.734C718.398 629.286 718.787 628.939 719.278 628.694C719.779 628.449 720.329 628.326 720.926 628.326ZM730.712 637.398C729.891 637.398 729.144 637.211 728.472 636.838C727.811 636.465 727.288 635.937 726.904 635.254C726.531 634.561 726.344 633.761 726.344 632.854C726.344 631.958 726.536 631.169 726.92 630.486C727.315 629.793 727.848 629.265 728.52 628.902C729.192 628.529 729.944 628.342 730.776 628.342C731.608 628.342 732.36 628.529 733.032 628.902C733.704 629.265 734.232 629.787 734.616 630.47C735.011 631.153 735.208 631.947 735.208 632.854C735.208 633.761 735.006 634.561 734.6 635.254C734.206 635.937 733.667 636.465 732.984 636.838C732.302 637.211 731.544 637.398 730.712 637.398ZM730.712 636.118C731.235 636.118 731.726 635.995 732.184 635.75C732.643 635.505 733.011 635.137 733.288 634.646C733.576 634.155 733.72 633.558 733.72 632.854C733.72 632.15 733.582 631.553 733.304 631.062C733.027 630.571 732.664 630.209 732.216 629.974C731.768 629.729 731.283 629.606 730.76 629.606C730.227 629.606 729.736 629.729 729.288 629.974C728.851 630.209 728.499 630.571 728.232 631.062C727.966 631.553 727.832 632.15 727.832 632.854C727.832 633.569 727.96 634.171 728.216 634.662C728.483 635.153 728.835 635.521 729.272 635.766C729.71 636.001 730.19 636.118 730.712 636.118ZM738.899 629.686V634.854C738.899 635.281 738.989 635.585 739.171 635.766C739.352 635.937 739.667 636.022 740.115 636.022H741.187V637.254H739.875C739.064 637.254 738.456 637.067 738.051 636.694C737.645 636.321 737.443 635.707 737.443 634.854V629.686H736.307V628.486H737.443V626.278H738.899V628.486H741.187V629.686H738.899ZM747.303 628.326C747.964 628.326 748.561 628.47 749.095 628.758C749.628 629.035 750.044 629.457 750.343 630.022C750.652 630.587 750.807 631.275 750.807 632.086V637.254H749.367V632.294C749.367 631.419 749.148 630.753 748.711 630.294C748.273 629.825 747.676 629.59 746.919 629.59C746.151 629.59 745.537 629.83 745.079 630.31C744.631 630.79 744.407 631.489 744.407 632.406V637.254H742.951V625.414H744.407V629.734C744.695 629.286 745.089 628.939 745.591 628.694C746.103 628.449 746.673 628.326 747.303 628.326ZM753.937 627.062C753.66 627.062 753.425 626.966 753.233 626.774C753.041 626.582 752.945 626.347 752.945 626.07C752.945 625.793 753.041 625.558 753.233 625.366C753.425 625.174 753.66 625.078 753.937 625.078C754.204 625.078 754.428 625.174 754.609 625.366C754.801 625.558 754.897 625.793 754.897 626.07C754.897 626.347 754.801 626.582 754.609 626.774C754.428 626.966 754.204 627.062 753.937 627.062ZM754.641 628.486V637.254H753.185V628.486H754.641ZM761.395 628.326C762.461 628.326 763.325 628.651 763.987 629.302C764.648 629.942 764.979 630.87 764.979 632.086V637.254H763.539V632.294C763.539 631.419 763.32 630.753 762.883 630.294C762.445 629.825 761.848 629.59 761.091 629.59C760.323 629.59 759.709 629.83 759.251 630.31C758.803 630.79 758.579 631.489 758.579 632.406V637.254H757.123V628.486H758.579V629.734C758.867 629.286 759.256 628.939 759.747 628.694C760.248 628.449 760.797 628.326 761.395 628.326ZM770.973 628.342C771.73 628.342 772.392 628.507 772.957 628.838C773.533 629.169 773.96 629.585 774.237 630.086V628.486H775.709V637.446C775.709 638.246 775.538 638.955 775.197 639.574C774.856 640.203 774.365 640.694 773.725 641.046C773.096 641.398 772.36 641.574 771.517 641.574C770.365 641.574 769.405 641.302 768.637 640.758C767.869 640.214 767.416 639.473 767.277 638.534H768.717C768.877 639.067 769.208 639.494 769.709 639.814C770.21 640.145 770.813 640.31 771.517 640.31C772.317 640.31 772.968 640.059 773.469 639.558C773.981 639.057 774.237 638.353 774.237 637.446V635.606C773.949 636.118 773.522 636.545 772.957 636.886C772.392 637.227 771.73 637.398 770.973 637.398C770.194 637.398 769.485 637.206 768.845 636.822C768.216 636.438 767.72 635.899 767.357 635.206C766.994 634.513 766.813 633.723 766.813 632.838C766.813 631.942 766.994 631.158 767.357 630.486C767.72 629.803 768.216 629.275 768.845 628.902C769.485 628.529 770.194 628.342 770.973 628.342ZM774.237 632.854C774.237 632.193 774.104 631.617 773.837 631.126C773.57 630.635 773.208 630.262 772.749 630.006C772.301 629.739 771.805 629.606 771.261 629.606C770.717 629.606 770.221 629.734 769.773 629.99C769.325 630.246 768.968 630.619 768.701 631.11C768.434 631.601 768.301 632.177 768.301 632.838C768.301 633.51 768.434 634.097 768.701 634.598C768.968 635.089 769.325 635.467 769.773 635.734C770.221 635.99 770.717 636.118 771.261 636.118C771.805 636.118 772.301 635.99 772.749 635.734C773.208 635.467 773.57 635.089 773.837 634.598C774.104 634.097 774.237 633.515 774.237 632.854ZM783.891 630.102C784.179 629.601 784.606 629.185 785.171 628.854C785.747 628.513 786.414 628.342 787.171 628.342C787.95 628.342 788.654 628.529 789.283 628.902C789.923 629.275 790.424 629.803 790.787 630.486C791.15 631.158 791.331 631.942 791.331 632.838C791.331 633.723 791.15 634.513 790.787 635.206C790.424 635.899 789.923 636.438 789.283 636.822C788.654 637.206 787.95 637.398 787.171 637.398C786.424 637.398 785.763 637.233 785.187 636.902C784.622 636.561 784.19 636.139 783.891 635.638V641.414H782.435V628.486H783.891V630.102ZM789.843 632.838C789.843 632.177 789.71 631.601 789.443 631.11C789.176 630.619 788.814 630.246 788.355 629.99C787.907 629.734 787.411 629.606 786.867 629.606C786.334 629.606 785.838 629.739 785.379 630.006C784.931 630.262 784.568 630.641 784.291 631.142C784.024 631.633 783.891 632.203 783.891 632.854C783.891 633.515 784.024 634.097 784.291 634.598C784.568 635.089 784.931 635.467 785.379 635.734C785.838 635.99 786.334 636.118 786.867 636.118C787.411 636.118 787.907 635.99 788.355 635.734C788.814 635.467 789.176 635.089 789.443 634.598C789.71 634.097 789.843 633.51 789.843 632.838ZM794.704 629.91C794.96 629.409 795.322 629.019 795.792 628.742C796.272 628.465 796.853 628.326 797.536 628.326V629.83H797.152C795.52 629.83 794.704 630.715 794.704 632.486V637.254H793.248V628.486H794.704V629.91ZM807.216 632.534C807.216 632.811 807.2 633.105 807.168 633.414H800.16C800.214 634.278 800.507 634.955 801.04 635.446C801.584 635.926 802.24 636.166 803.008 636.166C803.638 636.166 804.16 636.022 804.576 635.734C805.003 635.435 805.302 635.041 805.472 634.55H807.04C806.806 635.393 806.336 636.081 805.632 636.614C804.928 637.137 804.054 637.398 803.008 637.398C802.176 637.398 801.43 637.211 800.768 636.838C800.118 636.465 799.606 635.937 799.232 635.254C798.859 634.561 798.672 633.761 798.672 632.854C798.672 631.947 798.854 631.153 799.216 630.47C799.579 629.787 800.086 629.265 800.736 628.902C801.398 628.529 802.155 628.342 803.008 628.342C803.84 628.342 804.576 628.523 805.216 628.886C805.856 629.249 806.347 629.75 806.688 630.39C807.04 631.019 807.216 631.734 807.216 632.534ZM805.712 632.23C805.712 631.675 805.59 631.201 805.344 630.806C805.099 630.401 804.763 630.097 804.336 629.894C803.92 629.681 803.456 629.574 802.944 629.574C802.208 629.574 801.579 629.809 801.056 630.278C800.544 630.747 800.251 631.398 800.176 632.23H805.712ZM812.402 635.91L815.122 628.486H816.674L813.234 637.254H811.538L808.098 628.486H809.666L812.402 635.91ZM826.107 632.534C826.107 632.811 826.091 633.105 826.059 633.414H819.051C819.104 634.278 819.398 634.955 819.931 635.446C820.475 635.926 821.131 636.166 821.899 636.166C822.528 636.166 823.051 636.022 823.467 635.734C823.894 635.435 824.192 635.041 824.363 634.55H825.931C825.696 635.393 825.227 636.081 824.523 636.614C823.819 637.137 822.944 637.398 821.899 637.398C821.067 637.398 820.32 637.211 819.659 636.838C819.008 636.465 818.496 635.937 818.123 635.254C817.75 634.561 817.563 633.761 817.563 632.854C817.563 631.947 817.744 631.153 818.107 630.47C818.47 629.787 818.976 629.265 819.627 628.902C820.288 628.529 821.046 628.342 821.899 628.342C822.731 628.342 823.467 628.523 824.107 628.886C824.747 629.249 825.238 629.75 825.579 630.39C825.931 631.019 826.107 631.734 826.107 632.534ZM824.603 632.23C824.603 631.675 824.48 631.201 824.235 630.806C823.99 630.401 823.654 630.097 823.227 629.894C822.811 629.681 822.347 629.574 821.835 629.574C821.099 629.574 820.47 629.809 819.947 630.278C819.435 630.747 819.142 631.398 819.067 632.23H824.603ZM832.301 628.326C833.368 628.326 834.232 628.651 834.893 629.302C835.554 629.942 835.885 630.87 835.885 632.086V637.254H834.445V632.294C834.445 631.419 834.226 630.753 833.789 630.294C833.352 629.825 832.754 629.59 831.997 629.59C831.229 629.59 830.616 629.83 830.157 630.31C829.709 630.79 829.485 631.489 829.485 632.406V637.254H828.029V628.486H829.485V629.734C829.773 629.286 830.162 628.939 830.653 628.694C831.154 628.449 831.704 628.326 832.301 628.326ZM840.039 629.686V634.854C840.039 635.281 840.13 635.585 840.311 635.766C840.493 635.937 840.807 636.022 841.255 636.022H842.327V637.254H841.015C840.205 637.254 839.597 637.067 839.191 636.694C838.786 636.321 838.583 635.707 838.583 634.854V629.686H837.447V628.486H838.583V626.278H840.039V628.486H842.327V629.686H840.039ZM847.195 637.398C846.523 637.398 845.921 637.286 845.387 637.062C844.854 636.827 844.433 636.507 844.123 636.102C843.814 635.686 843.643 635.211 843.611 634.678H845.115C845.158 635.115 845.361 635.473 845.723 635.75C846.097 636.027 846.582 636.166 847.179 636.166C847.734 636.166 848.171 636.043 848.491 635.798C848.811 635.553 848.971 635.243 848.971 634.87C848.971 634.486 848.801 634.203 848.459 634.022C848.118 633.83 847.59 633.643 846.875 633.462C846.225 633.291 845.691 633.121 845.275 632.95C844.87 632.769 844.518 632.507 844.219 632.166C843.931 631.814 843.787 631.355 843.787 630.79C843.787 630.342 843.921 629.931 844.187 629.558C844.454 629.185 844.833 628.891 845.323 628.678C845.814 628.454 846.374 628.342 847.003 628.342C847.974 628.342 848.758 628.587 849.355 629.078C849.953 629.569 850.273 630.241 850.315 631.094H848.859C848.827 630.635 848.641 630.267 848.299 629.99C847.969 629.713 847.521 629.574 846.955 629.574C846.433 629.574 846.017 629.686 845.707 629.91C845.398 630.134 845.243 630.427 845.243 630.79C845.243 631.078 845.334 631.318 845.515 631.51C845.707 631.691 845.942 631.841 846.219 631.958C846.507 632.065 846.902 632.187 847.403 632.326C848.033 632.497 848.545 632.667 848.939 632.838C849.334 632.998 849.67 633.243 849.947 633.574C850.235 633.905 850.385 634.337 850.395 634.87C850.395 635.35 850.262 635.782 849.995 636.166C849.729 636.55 849.35 636.854 848.859 637.078C848.379 637.291 847.825 637.398 847.195 637.398ZM852.915 637.35C852.637 637.35 852.403 637.254 852.211 637.062C852.019 636.87 851.923 636.635 851.923 636.358C851.923 636.081 852.019 635.846 852.211 635.654C852.403 635.462 852.637 635.366 852.915 635.366C853.181 635.366 853.405 635.462 853.587 635.654C853.779 635.846 853.875 636.081 853.875 636.358C853.875 636.635 853.779 636.87 853.587 637.062C853.405 637.254 853.181 637.35 852.915 637.35Z" fill="white"/>
<rect x="191.86" y="308" width="87.2202" height="87.2202" fill="white"/>
<path d="M197.2 312.254H213.4V340.554C217.467 336.487 222.2 334.454 227.6 334.454C230.933 334.454 233.533 335.721 235.4 338.254C237.267 340.721 238.2 343.954 238.2 347.954V393.254H222V350.254C222 348.787 221.733 347.721 221.2 347.054C220.733 346.321 219.9 345.954 218.7 345.954C217.3 345.954 215.533 346.654 213.4 348.054V393.254H197.2V312.254ZM248.179 335.454H264.479V345.054C266.479 341.521 268.412 338.921 270.279 337.254C272.146 335.587 274.346 334.754 276.879 334.754C277.812 334.754 278.646 334.854 279.379 335.054V351.254C277.379 350.454 275.612 350.054 274.079 350.054C270.546 350.054 267.346 351.921 264.479 355.654V393.254H248.179V335.454Z" fill="#333333"/>
<path d="M305.904 374.85V386.44C305.904 387.225 306.081 387.795 306.436 388.15C306.816 388.479 307.449 388.644 308.336 388.644H310.996V392.254H307.576C305.625 392.254 304.131 391.798 303.092 390.886C302.053 389.974 301.534 388.492 301.534 386.44V374.85H299.064V371.316H301.534V366.11H305.904V371.316H310.996V374.85H305.904ZM334.179 381.272C334.179 382.057 334.128 382.767 334.027 383.4H318.029C318.155 385.072 318.776 386.415 319.891 387.428C321.005 388.441 322.373 388.948 323.995 388.948C326.325 388.948 327.972 387.973 328.935 386.022H333.609C332.975 387.947 331.823 389.531 330.151 390.772C328.504 391.988 326.452 392.596 323.995 392.596C321.993 392.596 320.195 392.153 318.599 391.266C317.028 390.354 315.787 389.087 314.875 387.466C313.988 385.819 313.545 383.919 313.545 381.766C313.545 379.613 313.975 377.725 314.837 376.104C315.723 374.457 316.952 373.191 318.523 372.304C320.119 371.417 321.943 370.974 323.995 370.974C325.971 370.974 327.731 371.405 329.277 372.266C330.822 373.127 332.025 374.343 332.887 375.914C333.748 377.459 334.179 379.245 334.179 381.272ZM329.657 379.904C329.631 378.308 329.061 377.029 327.947 376.066C326.832 375.103 325.451 374.622 323.805 374.622C322.31 374.622 321.031 375.103 319.967 376.066C318.903 377.003 318.269 378.283 318.067 379.904H329.657ZM336.998 381.766C336.998 379.613 337.428 377.725 338.29 376.104C339.176 374.457 340.392 373.191 341.938 372.304C343.483 371.417 345.256 370.974 347.258 370.974C349.791 370.974 351.881 371.582 353.528 372.798C355.2 373.989 356.327 375.699 356.91 377.928H352.236C351.856 376.889 351.248 376.079 350.412 375.496C349.576 374.913 348.524 374.622 347.258 374.622C345.484 374.622 344.066 375.255 343.002 376.522C341.963 377.763 341.444 379.511 341.444 381.766C341.444 384.021 341.963 385.781 343.002 387.048C344.066 388.315 345.484 388.948 347.258 388.948C349.766 388.948 351.425 387.846 352.236 385.642H356.91C356.302 387.77 355.162 389.467 353.49 390.734C351.818 391.975 349.74 392.596 347.258 392.596C345.256 392.596 343.483 392.153 341.938 391.266C340.392 390.354 339.176 389.087 338.29 387.466C337.428 385.819 336.998 383.919 336.998 381.766ZM372.057 370.974C373.653 370.974 375.072 371.316 376.313 372C377.58 372.684 378.568 373.697 379.277 375.04C380.012 376.383 380.379 378.004 380.379 379.904V392.254H376.085V380.55C376.085 378.675 375.616 377.244 374.679 376.256C373.742 375.243 372.462 374.736 370.841 374.736C369.22 374.736 367.928 375.243 366.965 376.256C366.028 377.244 365.559 378.675 365.559 380.55V392.254H361.227V364.134H365.559V373.748C366.294 372.861 367.218 372.177 368.333 371.696C369.473 371.215 370.714 370.974 372.057 370.974ZM390.237 374.432C390.971 373.419 391.972 372.595 393.239 371.962C394.531 371.303 395.962 370.974 397.533 370.974C399.382 370.974 401.054 371.417 402.549 372.304C404.043 373.191 405.221 374.457 406.083 376.104C406.944 377.725 407.375 379.587 407.375 381.69C407.375 383.793 406.944 385.68 406.083 387.352C405.221 388.999 404.031 390.291 402.511 391.228C401.016 392.14 399.357 392.596 397.533 392.596C395.911 392.596 394.467 392.279 393.201 391.646C391.959 391.013 390.971 390.202 390.237 389.214V392.254H385.905V364.134H390.237V374.432ZM402.967 381.69C402.967 380.246 402.663 379.005 402.055 377.966C401.472 376.902 400.687 376.104 399.699 375.572C398.736 375.015 397.697 374.736 396.583 374.736C395.493 374.736 394.455 375.015 393.467 375.572C392.504 376.129 391.719 376.94 391.111 378.004C390.528 379.068 390.237 380.322 390.237 381.766C390.237 383.21 390.528 384.477 391.111 385.566C391.719 386.63 392.504 387.441 393.467 387.998C394.455 388.555 395.493 388.834 396.583 388.834C397.697 388.834 398.736 388.555 399.699 387.998C400.687 387.415 401.472 386.579 402.055 385.49C402.663 384.401 402.967 383.134 402.967 381.69ZM410.215 381.69C410.215 379.587 410.645 377.725 411.507 376.104C412.393 374.483 413.584 373.229 415.079 372.342C416.599 371.43 418.271 370.974 420.095 370.974C421.741 370.974 423.173 371.303 424.389 371.962C425.63 372.595 426.618 373.393 427.353 374.356V371.316H431.723V392.254H427.353V389.138C426.618 390.126 425.617 390.949 424.351 391.608C423.084 392.267 421.64 392.596 420.019 392.596C418.22 392.596 416.573 392.14 415.079 391.228C413.584 390.291 412.393 388.999 411.507 387.352C410.645 385.68 410.215 383.793 410.215 381.69ZM427.353 381.766C427.353 380.322 427.049 379.068 426.441 378.004C425.858 376.94 425.085 376.129 424.123 375.572C423.16 375.015 422.121 374.736 421.007 374.736C419.892 374.736 418.853 375.015 417.891 375.572C416.928 376.104 416.143 376.902 415.535 377.966C414.952 379.005 414.661 380.246 414.661 381.69C414.661 383.134 414.952 384.401 415.535 385.49C416.143 386.579 416.928 387.415 417.891 387.998C418.879 388.555 419.917 388.834 421.007 388.834C422.121 388.834 423.16 388.555 424.123 387.998C425.085 387.441 425.858 386.63 426.441 385.566C427.049 384.477 427.353 383.21 427.353 381.766ZM445.013 392.596C443.366 392.596 441.884 392.305 440.567 391.722C439.275 391.114 438.249 390.303 437.489 389.29C436.729 388.251 436.323 387.099 436.273 385.832H440.757C440.833 386.719 441.251 387.466 442.011 388.074C442.796 388.657 443.771 388.948 444.937 388.948C446.153 388.948 447.09 388.72 447.749 388.264C448.433 387.783 448.775 387.175 448.775 386.44C448.775 385.655 448.395 385.072 447.635 384.692C446.9 384.312 445.722 383.894 444.101 383.438C442.53 383.007 441.251 382.589 440.263 382.184C439.275 381.779 438.413 381.158 437.679 380.322C436.969 379.486 436.615 378.384 436.615 377.016C436.615 375.901 436.944 374.888 437.603 373.976C438.261 373.039 439.199 372.304 440.415 371.772C441.656 371.24 443.075 370.974 444.671 370.974C447.052 370.974 448.965 371.582 450.409 372.798C451.878 373.989 452.663 375.623 452.765 377.7H448.433C448.357 376.763 447.977 376.015 447.293 375.458C446.609 374.901 445.684 374.622 444.519 374.622C443.379 374.622 442.505 374.837 441.897 375.268C441.289 375.699 440.985 376.269 440.985 376.978C440.985 377.535 441.187 378.004 441.593 378.384C441.998 378.764 442.492 379.068 443.075 379.296C443.657 379.499 444.519 379.765 445.659 380.094C447.179 380.499 448.42 380.917 449.383 381.348C450.371 381.753 451.219 382.361 451.929 383.172C452.638 383.983 453.005 385.059 453.031 386.402C453.031 387.593 452.701 388.657 452.043 389.594C451.384 390.531 450.447 391.266 449.231 391.798C448.04 392.33 446.634 392.596 445.013 392.596ZM476.901 381.272C476.901 382.057 476.851 382.767 476.749 383.4H460.751C460.878 385.072 461.499 386.415 462.613 387.428C463.728 388.441 465.096 388.948 466.717 388.948C469.048 388.948 470.695 387.973 471.657 386.022H476.331C475.698 387.947 474.545 389.531 472.873 390.772C471.227 391.988 469.175 392.596 466.717 392.596C464.716 392.596 462.917 392.153 461.321 391.266C459.751 390.354 458.509 389.087 457.597 387.466C456.711 385.819 456.267 383.919 456.267 381.766C456.267 379.613 456.698 377.725 457.559 376.104C458.446 374.457 459.675 373.191 461.245 372.304C462.841 371.417 464.665 370.974 466.717 370.974C468.693 370.974 470.454 371.405 471.999 372.266C473.545 373.127 474.748 374.343 475.609 375.914C476.471 377.459 476.901 379.245 476.901 381.272ZM472.379 379.904C472.354 378.308 471.784 377.029 470.669 376.066C469.555 375.103 468.174 374.622 466.527 374.622C465.033 374.622 463.753 375.103 462.689 376.066C461.625 377.003 460.992 378.283 460.789 379.904H472.379Z" fill="white"/>
<defs>
<filter id="filter0_d" x="185" y="718.254" width="248" height="60" filterUnits="userSpaceOnUse" color-interpolation-filters="sRGB">
<feFlood flood-opacity="0" result="BackgroundImageFix"/>
<feColorMatrix in="SourceAlpha" type="matrix" values="0 0 0 0 0 0 0 0 0 0 0 0 0 0 0 0 0 0 127 0"/>
<feOffset dy="2"/>
<feGaussianBlur stdDeviation="2"/>
<feColorMatrix type="matrix" values="0 0 0 0 0.137095 0 0 0 0 0.0758333 0 0 0 0 0.866667 0 0 0 1 0"/>
<feBlend mode="normal" in2="BackgroundImageFix" result="effect1_dropShadow"/>
<feBlend mode="normal" in="SourceGraphic" in2="effect1_dropShadow" result="shape"/>
</filter>
</defs>
</svg>
