<svg width="290" height="88" viewBox="0 0 290 88" fill="none" xmlns="http://www.w3.org/2000/svg">
<rect x="0.859863" width="87.2202" height="87.2202" fill="white"/>
<path d="M6.2 4.25402H22.4V32.554C26.4667 28.4874 31.2 26.454 36.6 26.454C39.9333 26.454 42.5333 27.7207 44.4 30.254C46.2667 32.7207 47.2 35.954 47.2 39.954V85.254H31V42.254C31 40.7874 30.7333 39.7207 30.2 39.054C29.7333 38.3207 28.9 37.954 27.7 37.954C26.3 37.954 24.5333 38.654 22.4 40.054V85.254H6.2V4.25402ZM57.1789 27.454H73.4789V37.054C75.4789 33.5207 77.4122 30.9207 79.2789 29.254C81.1456 27.5874 83.3456 26.754 85.8789 26.754C86.8122 26.754 87.6456 26.854 88.3789 27.054V43.254C86.3789 42.454 84.6122 42.054 83.0789 42.054C79.5456 42.054 76.3456 43.9207 73.4789 47.654V85.254H57.1789V27.454Z" fill="#333333"/>
<path d="M114.904 66.85V78.44C114.904 79.2253 115.081 79.7953 115.436 80.15C115.816 80.4793 116.449 80.644 117.336 80.644H119.996V84.254H116.576C114.625 84.254 113.131 83.798 112.092 82.886C111.053 81.974 110.534 80.492 110.534 78.44V66.85H108.064V63.316H110.534V58.11H114.904V63.316H119.996V66.85H114.904ZM143.179 73.272C143.179 74.0573 143.128 74.7667 143.027 75.4H127.029C127.155 77.072 127.776 78.4147 128.891 79.428C130.005 80.4413 131.373 80.948 132.995 80.948C135.325 80.948 136.972 79.9727 137.935 78.022H142.609C141.975 79.9473 140.823 81.5307 139.151 82.772C137.504 83.988 135.452 84.596 132.995 84.596C130.993 84.596 129.195 84.1527 127.599 83.266C126.028 82.354 124.787 81.0873 123.875 79.466C122.988 77.8193 122.545 75.9193 122.545 73.766C122.545 71.6127 122.975 69.7253 123.837 68.104C124.723 66.4573 125.952 65.1907 127.523 64.304C129.119 63.4173 130.943 62.974 132.995 62.974C134.971 62.974 136.731 63.4047 138.277 64.266C139.822 65.1273 141.025 66.3433 141.887 67.914C142.748 69.4593 143.179 71.2453 143.179 73.272ZM138.657 71.904C138.631 70.308 138.061 69.0287 136.947 68.066C135.832 67.1033 134.451 66.622 132.805 66.622C131.31 66.622 130.031 67.1033 128.967 68.066C127.903 69.0033 127.269 70.2827 127.067 71.904H138.657ZM145.998 73.766C145.998 71.6127 146.428 69.7253 147.29 68.104C148.176 66.4573 149.392 65.1907 150.938 64.304C152.483 63.4173 154.256 62.974 156.258 62.974C158.791 62.974 160.881 63.582 162.528 64.798C164.2 65.9887 165.327 67.6987 165.91 69.928H161.236C160.856 68.8893 160.248 68.0787 159.412 67.496C158.576 66.9133 157.524 66.622 156.258 66.622C154.484 66.622 153.066 67.2553 152.002 68.522C150.963 69.7633 150.444 71.5113 150.444 73.766C150.444 76.0207 150.963 77.7813 152.002 79.048C153.066 80.3147 154.484 80.948 156.258 80.948C158.766 80.948 160.425 79.846 161.236 77.642H165.91C165.302 79.77 164.162 81.4673 162.49 82.734C160.818 83.9753 158.74 84.596 156.258 84.596C154.256 84.596 152.483 84.1527 150.938 83.266C149.392 82.354 148.176 81.0873 147.29 79.466C146.428 77.8193 145.998 75.9193 145.998 73.766ZM181.057 62.974C182.653 62.974 184.072 63.316 185.313 64C186.58 64.684 187.568 65.6973 188.277 67.04C189.012 68.3827 189.379 70.004 189.379 71.904V84.254H185.085V72.55C185.085 70.6753 184.616 69.244 183.679 68.256C182.742 67.2427 181.462 66.736 179.841 66.736C178.22 66.736 176.928 67.2427 175.965 68.256C175.028 69.244 174.559 70.6753 174.559 72.55V84.254H170.227V56.134H174.559V65.748C175.294 64.8613 176.218 64.1773 177.333 63.696C178.473 63.2147 179.714 62.974 181.057 62.974ZM199.237 66.432C199.971 65.4187 200.972 64.5953 202.239 63.962C203.531 63.3033 204.962 62.974 206.533 62.974C208.382 62.974 210.054 63.4173 211.549 64.304C213.043 65.1907 214.221 66.4573 215.083 68.104C215.944 69.7253 216.375 71.5873 216.375 73.69C216.375 75.7927 215.944 77.68 215.083 79.352C214.221 80.9987 213.031 82.2907 211.511 83.228C210.016 84.14 208.357 84.596 206.533 84.596C204.911 84.596 203.467 84.2793 202.201 83.646C200.959 83.0127 199.971 82.202 199.237 81.214V84.254H194.905V56.134H199.237V66.432ZM211.967 73.69C211.967 72.246 211.663 71.0047 211.055 69.966C210.472 68.902 209.687 68.104 208.699 67.572C207.736 67.0147 206.697 66.736 205.583 66.736C204.493 66.736 203.455 67.0147 202.467 67.572C201.504 68.1293 200.719 68.94 200.111 70.004C199.528 71.068 199.237 72.322 199.237 73.766C199.237 75.21 199.528 76.4767 200.111 77.566C200.719 78.63 201.504 79.4407 202.467 79.998C203.455 80.5553 204.493 80.834 205.583 80.834C206.697 80.834 207.736 80.5553 208.699 79.998C209.687 79.4153 210.472 78.5793 211.055 77.49C211.663 76.4007 211.967 75.134 211.967 73.69ZM219.215 73.69C219.215 71.5873 219.645 69.7253 220.507 68.104C221.393 66.4827 222.584 65.2287 224.079 64.342C225.599 63.43 227.271 62.974 229.095 62.974C230.741 62.974 232.173 63.3033 233.389 63.962C234.63 64.5953 235.618 65.3933 236.353 66.356V63.316H240.723V84.254H236.353V81.138C235.618 82.126 234.617 82.9493 233.351 83.608C232.084 84.2667 230.64 84.596 229.019 84.596C227.22 84.596 225.573 84.14 224.079 83.228C222.584 82.2907 221.393 80.9987 220.507 79.352C219.645 77.68 219.215 75.7927 219.215 73.69ZM236.353 73.766C236.353 72.322 236.049 71.068 235.441 70.004C234.858 68.94 234.085 68.1293 233.123 67.572C232.16 67.0147 231.121 66.736 230.007 66.736C228.892 66.736 227.853 67.0147 226.891 67.572C225.928 68.104 225.143 68.902 224.535 69.966C223.952 71.0047 223.661 72.246 223.661 73.69C223.661 75.134 223.952 76.4007 224.535 77.49C225.143 78.5793 225.928 79.4153 226.891 79.998C227.879 80.5553 228.917 80.834 230.007 80.834C231.121 80.834 232.16 80.5553 233.123 79.998C234.085 79.4407 234.858 78.63 235.441 77.566C236.049 76.4767 236.353 75.21 236.353 73.766ZM254.013 84.596C252.366 84.596 250.884 84.3047 249.567 83.722C248.275 83.114 247.249 82.3033 246.489 81.29C245.729 80.2513 245.323 79.0987 245.273 77.832H249.757C249.833 78.7187 250.251 79.466 251.011 80.074C251.796 80.6567 252.771 80.948 253.937 80.948C255.153 80.948 256.09 80.72 256.749 80.264C257.433 79.7827 257.775 79.1747 257.775 78.44C257.775 77.6547 257.395 77.072 256.635 76.692C255.9 76.312 254.722 75.894 253.101 75.438C251.53 75.0073 250.251 74.5893 249.263 74.184C248.275 73.7787 247.413 73.158 246.679 72.322C245.969 71.486 245.615 70.384 245.615 69.016C245.615 67.9013 245.944 66.888 246.603 65.976C247.261 65.0387 248.199 64.304 249.415 63.772C250.656 63.24 252.075 62.974 253.671 62.974C256.052 62.974 257.965 63.582 259.409 64.798C260.878 65.9887 261.663 67.6227 261.765 69.7H257.433C257.357 68.7627 256.977 68.0153 256.293 67.458C255.609 66.9007 254.684 66.622 253.519 66.622C252.379 66.622 251.505 66.8373 250.897 67.268C250.289 67.6987 249.985 68.2687 249.985 68.978C249.985 69.5353 250.187 70.004 250.593 70.384C250.998 70.764 251.492 71.068 252.075 71.296C252.657 71.4987 253.519 71.7647 254.659 72.094C256.179 72.4993 257.42 72.9173 258.383 73.348C259.371 73.7533 260.219 74.3613 260.929 75.172C261.638 75.9827 262.005 77.0593 262.031 78.402C262.031 79.5927 261.701 80.6567 261.043 81.594C260.384 82.5313 259.447 83.266 258.231 83.798C257.04 84.33 255.634 84.596 254.013 84.596ZM285.901 73.272C285.901 74.0573 285.851 74.7667 285.749 75.4H269.751C269.878 77.072 270.499 78.4147 271.613 79.428C272.728 80.4413 274.096 80.948 275.717 80.948C278.048 80.948 279.695 79.9727 280.657 78.022H285.331C284.698 79.9473 283.545 81.5307 281.873 82.772C280.227 83.988 278.175 84.596 275.717 84.596C273.716 84.596 271.917 84.1527 270.321 83.266C268.751 82.354 267.509 81.0873 266.597 79.466C265.711 77.8193 265.267 75.9193 265.267 73.766C265.267 71.6127 265.698 69.7253 266.559 68.104C267.446 66.4573 268.675 65.1907 270.245 64.304C271.841 63.4173 273.665 62.974 275.717 62.974C277.693 62.974 279.454 63.4047 280.999 64.266C282.545 65.1273 283.748 66.3433 284.609 67.914C285.471 69.4593 285.901 71.2453 285.901 73.272ZM281.379 71.904C281.354 70.308 280.784 69.0287 279.669 68.066C278.555 67.1033 277.174 66.622 275.527 66.622C274.033 66.622 272.753 67.1033 271.689 68.066C270.625 69.0033 269.992 70.2827 269.789 71.904H281.379Z" fill="white"/>
</svg>
