<svg width="24" height="25" viewBox="0 0 24 25" fill="none" xmlns="http://www.w3.org/2000/svg">
<path d="M19.4996 23.2514H9.75005V19.1266V17.6266H9.00008V18.7516H6.0002C3.04383 18.7516 3.00033 15.1544 3.00033 15.0017H4.12528V14.2518H2.62535H1.12541C1.11997 14.2524 1.11454 14.2529 1.1091 14.2533C0.92709 14.2661 0.769175 14.1289 0.756425 13.9469L2.96583 9.15911C2.98866 9.1099 3.00042 9.05627 3.00033 9.002C3.00033 8.75136 3.01172 8.50083 3.0345 8.25123C3.44872 3.71392 7.46269 0.371494 12 0.785711L12.0667 0.0398666C9.54357 -0.199373 7.03779 0.645982 5.17524 2.36477C3.33608 4.05108 2.27727 6.42365 2.25036 8.91875L0.0349556 13.7197C0.0121284 13.7689 0.000363266 13.8225 0.000457012 13.8768C-0.000152337 13.8981 -0.000152337 13.9194 0.000457012 13.9407C0.0181281 14.5444 0.521779 15.0194 1.12541 15.0017H2.25036C2.25036 16.5579 3.03408 19.5016 6.0002 19.5016H9.00008V23.6264C9.00008 23.8335 9.16798 24.0014 9.37506 24.0014H19.8746C20.0817 24.0014 20.2496 23.8335 20.2496 23.6264V13.5018H19.4996V23.2514Z" fill="black"/>
<path d="M23.7006 4.13843C22.6696 0.99105 19.2824 -0.724691 16.1351 0.306281C12.9877 1.33725 11.272 4.72439 12.3029 7.87178L10.5694 10.2829C10.5234 10.3468 10.4988 10.4234 10.4988 10.502C10.4988 10.7091 10.6668 10.8769 10.8739 10.8769H14.5112C15.526 11.61 16.7466 12.0037 17.9986 12.0019C18.6337 12.0022 19.2648 11.9016 19.8684 11.7039C23.0158 10.673 24.7315 7.28577 23.7006 4.13843ZM17.9986 11.2519C16.8655 11.2532 15.7631 10.8846 14.8588 10.2019C14.7939 10.1532 14.715 10.1269 14.6338 10.1269H11.6051L13.0251 8.15152C13.0977 8.05074 13.1157 7.92057 13.0731 7.80391C12.8564 7.21527 12.7466 6.59271 12.7487 5.96545C12.7589 3.05595 15.1257 0.705546 18.0352 0.715624C20.9447 0.725701 23.2951 3.09256 23.285 6.00206C23.2749 8.91156 20.9081 11.262 17.9986 11.2519Z" fill="black"/>
<path d="M17.9982 1.87727C17.3769 1.87727 16.8733 2.38092 16.8733 3.00223V6.0021C16.8733 6.6234 17.3769 7.12705 17.9982 7.12705C18.6195 7.12705 19.1232 6.6234 19.1232 6.0021V3.00223C19.1232 2.38092 18.6195 1.87727 17.9982 1.87727ZM18.3732 6.0021C18.3732 6.20918 18.2053 6.37708 17.9982 6.37708C17.7912 6.37708 17.6233 6.20918 17.6233 6.0021V3.00223C17.6233 2.79514 17.7912 2.62724 17.9982 2.62724C18.2053 2.62724 18.3732 2.79514 18.3732 3.00223V6.0021Z" fill="black"/>
<path d="M17.9982 7.87703C17.3769 7.87703 16.8733 8.38068 16.8733 9.00198C16.8733 9.62328 17.3769 10.1269 17.9982 10.1269C18.6195 10.1269 19.1232 9.62328 19.1232 9.00198C19.1232 8.38068 18.6195 7.87703 17.9982 7.87703ZM17.9982 9.37696C17.7912 9.37696 17.6233 9.20907 17.6233 9.00198C17.6233 8.7949 17.7912 8.627 17.9982 8.627C18.2053 8.627 18.3732 8.7949 18.3732 9.00198C18.3732 9.20907 18.2053 9.37696 17.9982 9.37696Z" fill="black"/>
</svg>
