<svg width="17" height="16" viewBox="0 0 17 16" fill="none" xmlns="http://www.w3.org/2000/svg">
<rect x="1.47168" y="0.5" width="15" height="15" rx="2.5" fill="#EDEDED" stroke="#EDEDED"/>
<path d="M14 7.78571C14 6.00781 11.986 4.57143 9.5 4.57143C7.01395 4.57143 5 6.01283 5 7.78571C5 8.80525 5.66295 9.71429 6.69754 10.3019C6.4615 11.1406 6.09989 11.442 5.78348 11.7985C5.70815 11.889 5.62277 11.9643 5.64788 12.0898C5.64788 12.0898 5.64788 12.0898 5.64788 12.0949C5.67299 12.2154 5.77846 12.2958 5.88895 12.2857C6.08482 12.2606 6.28069 12.2254 6.4615 12.1752C7.33036 11.9542 8.11384 11.5424 8.77176 10.9598C9.00781 10.9849 9.25391 11 9.5 11C11.986 11 14 9.56362 14 7.78571Z" fill="black"/>
</svg>
