<svg width="26" height="27" viewBox="0 0 26 27" fill="none" xmlns="http://www.w3.org/2000/svg">
<g clip-path="url(#clip0)">
<path d="M16.783 7.87118C16.2769 4.58583 13.5051 2.1246 10.2907 2.1246H5.68022V0.906315C5.68022 0.632303 5.52128 0.385123 5.27742 0.280234C5.03348 0.175525 4.75292 0.233255 4.56631 0.427223L0.191112 4.97178C-0.063704 5.23639 -0.063704 5.66535 0.191112 5.92987L4.56639 10.4746C4.75283 10.6685 5.03357 10.7262 5.27751 10.6216C5.52137 10.5167 5.68031 10.2696 5.68031 9.99552V8.77687H10.2908C10.3778 8.77687 10.4632 8.86577 10.4632 8.95647L10.463 26.0936C10.463 26.4679 10.7551 26.7712 11.1155 26.7712H16.2156C16.5761 26.7712 16.8681 26.4679 16.8681 26.0936V14.6997C16.8681 14.6091 16.9535 14.5203 17.0405 14.5203H20.3198V15.6909C20.3198 15.965 20.4788 16.2121 20.7227 16.3169C20.9665 16.4217 21.2471 16.3637 21.4338 16.17L25.809 11.6249C26.0638 11.3602 26.0637 10.9313 25.8089 10.6667L21.4337 6.12212C21.2471 5.92825 20.9665 5.87034 20.7226 5.97513C20.4788 6.08002 20.3198 6.32711 20.3198 6.60122V7.87118H16.783ZM10.2907 7.42172H5.02774C4.66731 7.42172 4.37526 7.725 4.37526 8.09929V8.35957L1.57516 5.45087L4.37535 2.54244V2.80218C4.37535 3.17647 4.6674 3.47975 5.02783 3.47975H10.2908C12.8586 3.47975 15.0737 5.44165 15.4905 8.06126C13.9801 8.44188 12.6713 9.36392 11.7682 10.6194V8.95647C11.7681 8.1245 11.0916 7.42172 10.2907 7.42172ZM21.6248 14.0547V13.8427C21.6248 13.4684 21.3327 13.1651 20.9723 13.1651H17.0405C16.2397 13.1651 15.5631 13.8678 15.5631 14.6997V25.416H11.768V14.6997C11.768 11.6798 14.1333 9.22299 17.0405 9.22299H20.9722C21.3327 9.22299 21.6247 8.9197 21.6247 8.54541V8.23734L24.4248 11.1458L21.6248 14.0547Z" fill="black"/>
</g>
<defs>
<clipPath id="clip0">
<rect width="26" height="27" fill="white"/>
</clipPath>
</defs>
</svg>
