<svg width="28" height="28" viewBox="0 0 28 28" fill="none" xmlns="http://www.w3.org/2000/svg">
<rect x="0.5" y="0.5" width="27" height="27" rx="2.5" fill="#787878" stroke="#EDEDED"/>
<path d="M18.0234 11.2266L19.1484 12.3516C19.2422 12.4453 19.3672 12.5 19.5 12.5C19.5625 12.5 19.6328 12.4844 19.6953 12.4609C19.875 12.3828 20 12.2031 20 12V8.5C20 8.22656 19.7734 8 19.5 8H16C15.7969 8 15.6172 8.125 15.5391 8.3125C15.4609 8.49219 15.5 8.71094 15.6484 8.85156L16.7734 9.97656L14 12.75L11.2266 9.97656L12.3516 8.85156C12.5 8.71094 12.5391 8.49219 12.4609 8.3125C12.3828 8.125 12.2031 8 12 8H8.5C8.22656 8 8 8.22656 8 8.5V12C8 12.2031 8.125 12.3828 8.3125 12.4609C8.36719 12.4844 8.4375 12.5 8.5 12.5C8.63281 12.5 8.75781 12.4453 8.85156 12.3516L9.97656 11.2266L12.75 14L9.97656 16.7734L8.85156 15.6484C8.71094 15.5 8.49219 15.4609 8.3125 15.5391C8.125 15.6172 8 15.7969 8 16V19.5C8 19.7734 8.22656 20 8.5 20H12C12.2031 20 12.3828 19.875 12.4609 19.6875C12.5391 19.5078 12.5 19.2891 12.3516 19.1484L11.2266 18.0234L14 15.25L16.7734 18.0234L15.6484 19.1484C15.5 19.2891 15.4609 19.5078 15.5391 19.6875C15.6172 19.875 15.7969 20 16 20H19.5C19.7734 20 20 19.7734 20 19.5V16C20 15.7969 19.875 15.6172 19.6953 15.5391C19.5078 15.4609 19.2891 15.5 19.1484 15.6484L18.0234 16.7734L15.25 14L18.0234 11.2266Z" fill="white"/>
</svg>
