<svg width="24" height="22" viewBox="0 0 24 22" fill="none" xmlns="http://www.w3.org/2000/svg">
<path d="M0 0H22V22H0V0Z" fill="white"/>
<path d="M5.78475 18.3848L7.46827 17.3659C7.79312 17.9418 8.08857 18.429 8.7973 18.429C9.47664 18.429 9.90504 18.1633 9.90504 17.1296V10.1001H11.9724V17.1589C11.9724 19.3002 10.7172 20.2749 8.8859 20.2749C7.23203 20.2749 6.27202 19.4183 5.78467 18.3846L5.78475 18.3848ZM13.0954 18.1632L14.7787 17.1886C15.2219 17.9123 15.7979 18.4439 16.8167 18.4439C17.6735 18.4439 18.2197 18.0156 18.2197 17.4248C18.2197 16.716 17.6585 16.4649 16.7134 16.0516L16.1966 15.8298C14.705 15.195 13.7156 14.3975 13.7156 12.714C13.7156 11.1634 14.897 9.98189 16.743 9.98189C18.0573 9.98189 19.0025 10.4398 19.6817 11.6359L18.072 12.6698C17.7175 12.0348 17.3337 11.7837 16.7429 11.7837C16.1374 11.7837 15.7534 12.1677 15.7534 12.6698C15.7534 13.29 16.1374 13.5412 17.0234 13.9251L17.5403 14.1466C19.2977 14.8998 20.2871 15.6677 20.2871 17.3954C20.2871 19.2563 18.8251 20.2751 16.861 20.2751C14.9412 20.2751 13.7007 19.3596 13.0953 18.1633" fill="#CDCDCD"/>
</svg>
