<svg width="17" height="16" viewBox="0 0 17 16" fill="none" xmlns="http://www.w3.org/2000/svg">
<rect x="1.37451" y="0.5" width="15" height="15" rx="2.5" fill="#EDEDED" stroke="#EDEDED"/>
<path d="M6.92857 11V9.07143H10.7857V11H6.92857ZM11.4286 11V8.91071C11.4286 8.64453 11.2126 8.42857 10.9464 8.42857H6.76786C6.50167 8.42857 6.28571 8.64453 6.28571 8.91071V11H5.64286V4.57143H6.28571V6.66071C6.28571 6.9269 6.50167 7.14286 6.76786 7.14286H9.66071C9.9269 7.14286 10.1429 6.9269 10.1429 6.66071V4.57143C10.2433 4.57143 10.4392 4.65179 10.5095 4.7221L11.9208 6.13337C11.986 6.19866 12.0714 6.40458 12.0714 6.5V11H11.4286ZM9.5 6.33929C9.5 6.42466 9.42467 6.5 9.33929 6.5H8.375C8.28962 6.5 8.21429 6.42466 8.21429 6.33929V4.73214C8.21429 4.64676 8.28962 4.57143 8.375 4.57143H9.33929C9.42467 4.57143 9.5 4.64676 9.5 4.73214V6.33929ZM12.7143 6.5C12.7143 6.23382 12.5636 5.86719 12.3728 5.67634L10.9665 4.27009C10.7757 4.07924 10.409 3.92857 10.1429 3.92857H5.48214C5.21596 3.92857 5 4.14453 5 4.41071V11.1607C5 11.4269 5.21596 11.6429 5.48214 11.6429H12.2321C12.4983 11.6429 12.7143 11.4269 12.7143 11.1607V6.5Z" fill="black"/>
</svg>
