<svg width="795" height="596" viewBox="0 0 795 596" fill="none" xmlns="http://www.w3.org/2000/svg">
<g clip-path="url(#clip0)">
<path d="M740.382 244.881H0V596H740.382V244.881Z" fill="#3F1DCB"/>
<path d="M617.98 387.119H122.402V596H617.98V387.119Z" fill="#F0F0F0"/>
<path d="M617.98 399.865H122.402V401.854H617.98V399.865Z" fill="#3F3D56"/>
<path d="M131.335 397.621C133.303 397.621 134.899 396.026 134.899 394.059C134.899 392.091 133.303 390.496 131.335 390.496C129.367 390.496 127.771 392.091 127.771 394.059C127.771 396.026 129.367 397.621 131.335 397.621Z" fill="#3F3D56"/>
<path d="M143.554 397.621C145.523 397.621 147.118 396.026 147.118 394.059C147.118 392.091 145.523 390.496 143.554 390.496C141.586 390.496 139.99 392.091 139.99 394.059C139.99 396.026 141.586 397.621 143.554 397.621Z" fill="#3F3D56"/>
<path d="M155.774 397.621C157.742 397.621 159.338 396.026 159.338 394.059C159.338 392.091 157.742 390.496 155.774 390.496C153.805 390.496 152.21 392.091 152.21 394.059C152.21 396.026 153.805 397.621 155.774 397.621Z" fill="#3F3D56"/>
<path d="M396.105 493.73L401.381 504.416L413.178 506.129L404.642 514.447L406.657 526.191L396.105 520.646L385.553 526.191L387.568 514.447L379.031 506.129L390.829 504.416L396.105 493.73Z" fill="#3F1DCB"/>
<path d="M443.574 493.73L448.85 504.416L460.647 506.129L452.11 514.447L454.126 526.191L443.574 520.646L433.022 526.191L435.036 514.447L426.5 506.129L438.298 504.416L443.574 493.73Z" fill="#3F1DCB"/>
<path d="M491.042 493.73L496.318 504.416L508.116 506.129L499.579 514.447L501.594 526.191L491.042 520.646L480.49 526.191L482.505 514.447L473.969 506.129L485.766 504.416L491.042 493.73Z" fill="#3F1DCB"/>
<path d="M538.511 493.73L543.787 504.416L555.584 506.129L547.047 514.447L549.063 526.191L538.511 520.646L527.959 526.191L529.974 514.447L521.437 506.129L533.235 504.416L538.511 493.73Z" fill="#3F1DCB"/>
<path d="M585.979 493.73L591.255 504.416L603.053 506.129L594.516 514.447L596.531 526.191L585.979 520.646L575.427 526.191L577.442 514.447L568.906 506.129L580.704 504.416L585.979 493.73Z" fill="#3F1DCB"/>
<path d="M349.293 448.789H156.236V571.133H349.293V448.789Z" fill="#3F3D56"/>
<path opacity="0.1" d="M195.604 244.881L0 379.102V310.34L95.3939 244.881H195.604Z" fill="black"/>
<path opacity="0.1" d="M418.067 244.881L0 531.754V462.983L317.857 244.881H418.067Z" fill="black"/>
<path d="M113.091 344.986L99.6916 330.627L114.058 317.233L127.457 331.593L113.091 344.986ZM101.827 330.701L113.166 342.851L125.321 331.518L113.983 319.368L101.827 330.701Z" fill="#F0F0F0"/>
<path d="M555.286 335.954H535.641V316.318H555.286V335.954ZM537.152 334.444H553.775V317.829H537.152V334.444Z" fill="#3F3D56"/>
<path d="M677.002 503.53C682.541 503.53 687.031 499.042 687.031 493.505C687.031 487.969 682.541 483.48 677.002 483.48C671.462 483.48 666.972 487.969 666.972 493.505C666.972 499.042 671.462 503.53 677.002 503.53Z" fill="#F0F0F0"/>
<path d="M677.002 522.466C671.271 522.466 665.669 520.768 660.904 517.585C656.139 514.403 652.426 509.88 650.233 504.588C648.04 499.296 647.466 493.473 648.584 487.855C649.702 482.238 652.461 477.077 656.514 473.027C660.566 468.977 665.728 466.218 671.349 465.101C676.969 463.984 682.795 464.557 688.09 466.749C693.384 468.941 697.909 472.653 701.093 477.416C704.277 482.178 705.976 487.777 705.976 493.505C705.967 501.184 702.912 508.545 697.48 513.974C692.048 519.404 684.683 522.458 677.002 522.466ZM677.002 466.772C671.712 466.772 666.541 468.34 662.142 471.278C657.744 474.215 654.316 478.39 652.292 483.275C650.267 488.16 649.738 493.535 650.77 498.721C651.802 503.906 654.349 508.67 658.089 512.409C661.83 516.147 666.596 518.693 671.784 519.725C676.972 520.756 682.349 520.227 687.237 518.204C692.124 516.18 696.301 512.754 699.24 508.358C702.179 503.961 703.747 498.793 703.747 493.505C703.739 486.418 700.919 479.623 695.905 474.611C690.891 469.599 684.092 466.78 677.002 466.772Z" fill="#2F2E41"/>
<path d="M227.886 544.313C232.493 561.336 248.273 571.878 248.273 571.878C248.273 571.878 256.584 554.822 251.977 537.799C247.37 520.777 231.59 510.234 231.59 510.234C231.59 510.234 223.279 527.291 227.886 544.313Z" fill="white"/>
<path d="M234.656 540.655C247.298 552.955 248.842 571.864 248.842 571.864C248.842 571.864 229.89 570.83 217.248 558.529C204.606 546.229 203.062 527.32 203.062 527.32C203.062 527.32 222.014 528.354 234.656 540.655Z" fill="#3F1DCB"/>
<path d="M269.797 544.313C265.19 561.336 249.41 571.878 249.41 571.878C249.41 571.878 241.1 554.822 245.707 537.799C250.314 520.777 266.094 510.234 266.094 510.234C266.094 510.234 274.404 527.291 269.797 544.313Z" fill="white"/>
<path d="M263.028 540.655C250.386 552.955 248.842 571.864 248.842 571.864C248.842 571.864 267.794 570.83 280.436 558.529C293.078 546.229 294.622 527.32 294.622 527.32C294.622 527.32 275.669 528.354 263.028 540.655Z" fill="#3F1DCB"/>
<path d="M642.524 18.9558H564.389V109.944H642.524V18.9558Z" fill="#F2F2F2"/>
<path d="M615.959 245.932L614.873 244.872C619.866 239.213 623.651 232.595 625.996 225.423C629.687 214.32 631.49 196.785 619.117 176.302C606.458 155.345 605.888 138.323 607.639 127.733C609.545 116.211 614.406 109.752 614.612 109.483L615.818 110.404C615.769 110.467 610.95 116.892 609.121 128.07C607.433 138.391 608.022 155.001 620.416 175.518C633.105 196.525 631.225 214.547 627.414 225.966C623.284 238.338 616.256 245.627 615.959 245.932Z" fill="#3F3D56"/>
<path d="M672.867 110.702H563.631V1.51648H672.867V110.702ZM565.148 109.186H671.35V3.03295H565.148V109.186Z" fill="#3F3D56"/>
<path d="M653.144 33.3623H586.388V34.8787H653.144V33.3623Z" fill="#3F3D56"/>
<path d="M653.144 50.0434H586.388V51.5599H653.144V50.0434Z" fill="#3F3D56"/>
<path d="M653.144 66.7245H586.388V68.241H653.144V66.7245Z" fill="#3F3D56"/>
<path d="M764.656 84.9221H686.522V175.91H764.656V84.9221Z" fill="#F2F2F2"/>
<path d="M738.091 311.898L737.006 310.839C741.999 305.18 745.784 298.561 748.128 291.389C751.819 280.286 753.623 262.752 741.25 242.269C728.59 221.311 728.021 204.289 729.771 193.7C731.677 182.177 736.539 175.719 736.745 175.45L737.95 176.37C737.902 176.434 733.082 182.858 731.254 194.037C729.566 204.357 730.154 220.967 742.548 241.484C755.237 262.491 753.358 280.513 749.547 291.932C745.417 304.304 738.389 311.594 738.091 311.898Z" fill="#3F3D56"/>
<path d="M795 176.668H685.763V67.4828H795V176.668ZM687.281 175.152H793.483V68.9993H687.281V175.152Z" fill="#3F3D56"/>
<path d="M775.277 99.3286H708.521V100.845H775.277V99.3286Z" fill="#3F3D56"/>
<path d="M775.277 116.01H708.521V117.526H775.277V116.01Z" fill="#3F3D56"/>
<path d="M775.277 132.691H708.521V134.207H775.277V132.691Z" fill="#3F3D56"/>
<path d="M183.578 17.4394H105.444V108.427H183.578V17.4394Z" fill="#F2F2F2"/>
<path d="M157.013 244.415L155.928 243.356C160.921 237.697 164.706 231.079 167.05 223.907C170.741 212.804 172.544 195.269 160.171 174.786C147.512 153.828 146.942 136.806 148.693 126.217C150.599 114.695 155.461 108.236 155.666 107.967L156.872 108.888C156.824 108.951 152.004 115.375 150.176 126.554C148.487 136.874 149.076 153.484 161.47 174.002C174.159 195.009 172.279 213.03 168.468 224.449C164.339 236.822 157.311 244.111 157.013 244.415Z" fill="#3F3D56"/>
<path d="M213.922 109.186H104.685V0H213.922V109.186ZM106.202 107.669H212.405V1.51647H106.202V107.669Z" fill="#3F3D56"/>
<path d="M194.198 31.8458H127.443V33.3623H194.198V31.8458Z" fill="#3F3D56"/>
<path d="M194.198 48.5269H127.443V50.0434H194.198V48.5269Z" fill="#3F3D56"/>
<path d="M194.198 65.2081H127.443V66.7245H194.198V65.2081Z" fill="#3F3D56"/>
<path d="M356.127 277.634L361.403 288.32L373.201 290.033L364.664 298.35L366.679 310.095L356.127 304.55L345.575 310.095L347.59 298.35L339.054 290.033L350.851 288.32L356.127 277.634Z" fill="#F0F0F0"/>
<path d="M375.2 36.7068H375.2C393.43 36.7068 408.209 53.1001 408.209 73.3224V99.015H400.303L395.726 89.4957L396.87 99.015H346.057L341.896 90.3611L342.936 99.015H337.215V78.8417C337.215 55.5712 354.221 36.7068 375.2 36.7068Z" fill="#2F2E41"/>
<path d="M413.022 204.568L433.289 213.178L503.718 270.406C506.308 273.587 507.895 277.465 508.278 281.548C508.785 288.132 530.066 322.57 522.465 327.128C514.865 331.686 487.504 345.36 485.984 336.244C484.464 327.128 476.357 288.132 476.357 288.132L408.462 227.358L413.022 204.568Z" fill="#2F2E41"/>
<path d="M492.571 328.647L501.185 353.97C501.185 353.97 492.064 363.592 496.625 371.695V399.55H503.718L505.745 384.863C505.745 384.863 513.824 399.364 517.905 399.55C526.46 399.939 543.401 402.98 543.907 398.422C544.414 393.864 531.079 389.421 531.079 389.421L516.892 350.425L510.812 326.622L492.571 328.647Z" fill="#2F2E41"/>
<path d="M360.327 197.985C360.327 197.985 355.767 242.552 368.941 250.655C382.115 258.758 440.383 284.587 440.383 284.587C440.383 284.587 415.556 307.883 420.622 313.454C425.689 319.025 448.49 334.218 451.53 331.18C454.57 328.141 488.518 291.677 484.464 280.029C480.411 268.38 424.169 230.397 424.169 230.397L417.582 206.594L415.556 187.349L394.275 173.675L360.327 197.985Z" fill="#2F2E41"/>
<path d="M383.541 94.2211C395.207 94.2211 404.664 84.7686 404.664 73.1083C404.664 61.448 395.207 51.9955 383.541 51.9955C371.875 51.9955 362.418 61.448 362.418 73.1083C362.418 84.7686 371.875 94.2211 383.541 94.2211Z" fill="#FFB9B9"/>
<path d="M367.168 81.7556C367.168 81.7556 368.181 101.001 352.474 107.078C336.767 113.155 391.488 152.658 391.488 152.658V108.597C391.488 108.597 384.395 101.001 391.488 89.3523L367.168 81.7556Z" fill="#FFB9B9"/>
<path d="M333.473 172.156L337.527 191.907L349.687 259.771C349.687 259.771 339.553 288.638 353.234 288.132C366.914 287.625 360.327 256.732 360.327 256.732L353.234 200.517V178.74L333.473 172.156Z" fill="#FFB9B9"/>
<path d="M420.622 162.534L425.183 180.259L445.956 230.397C445.956 230.397 460.144 254.2 448.49 253.694C436.836 253.187 436.836 230.397 436.836 230.397L413.022 189.882V167.092L420.622 162.534Z" fill="#FFB9B9"/>
<path d="M424.169 310.415L407.449 326.115C407.449 326.115 395.795 323.583 391.235 337.257C386.675 350.931 383.635 359.541 383.635 359.541L389.715 363.086L397.315 352.45C397.315 352.45 401.875 371.695 406.435 373.215C410.995 374.734 433.796 384.863 431.769 373.215L420.622 357.008C420.622 357.008 419.102 338.776 423.662 337.257C428.223 335.738 440.383 320.544 440.383 320.544L424.169 310.415Z" fill="#2F2E41"/>
<path d="M359.524 213.684C359.524 213.684 407.152 196.465 410.192 197.985C412.455 198.984 414.865 199.609 417.329 199.836L417.286 192.92C417.286 192.92 401.579 187.349 392.965 190.894C384.351 194.44 358.004 210.139 358.004 210.139L359.524 213.684Z" fill="#3F3D56"/>
<path d="M388.448 142.529C388.448 142.529 374.768 126.829 370.714 117.207C368.15 111.373 363.442 106.747 357.564 104.282C357.564 104.282 327.14 111.129 327.646 123.284C328.153 135.439 346.9 154.177 346.9 154.177C346.9 154.177 344.367 221.534 358.047 220.521C360.998 217.002 363.081 212.838 364.127 208.367C365.647 201.277 412.769 193.68 412.769 193.68C412.769 193.68 416.822 200.77 417.329 197.731C417.836 194.693 413.276 120.245 413.276 120.245L389.113 104.282L388.448 142.529Z" fill="#D0CDE1"/>
<path d="M331.549 118.392L331.21 118.582C330.127 119.189 329.226 120.074 328.598 121.145C327.971 122.216 327.64 123.435 327.641 124.676L327.646 162.261C327.642 163.283 327.416 164.291 326.983 165.217C326.55 166.142 325.921 166.962 325.14 167.621C323.188 169.28 321.378 171.671 325.113 172.916C331.193 174.941 355.007 185.07 355.514 181.525C356.021 177.98 357.034 173.929 355.514 173.929C354.324 173.929 347.234 137.612 341.536 122.085C341.188 121.134 340.638 120.271 339.923 119.554C339.208 118.836 338.346 118.283 337.397 117.932C336.447 117.581 335.432 117.44 334.422 117.519C333.413 117.599 332.432 117.896 331.549 118.392Z" fill="#D0CDE1"/>
<path d="M406.435 118.473L413.529 120.499L421.636 155.443C421.636 155.443 431.263 157.469 428.223 161.014C425.182 164.559 412.516 173.675 412.516 173.675L406.435 118.473Z" fill="#D0CDE1"/>
<path d="M365.816 46.7932C367.404 44.6611 369.463 42.9236 371.832 41.7153C374.2 40.507 376.816 39.8605 379.475 39.8259H380.123C392.618 39.8259 402.748 51.1273 402.748 65.0683V65.0683H398.561L397.885 59.9241L396.893 65.0683H372.062L369.981 60.7162L370.501 65.0683H365.616C363.337 76.3839 366.612 87.6994 375.442 99.015H367.121L362.96 90.3107L364 99.015H348.137L345.016 78.9951C345.016 64.0021 353.732 51.2883 365.816 46.7932Z" fill="#2F2E41"/>
</g>
<defs>
<clipPath id="clip0">
<rect width="795" height="596" fill="white"/>
</clipPath>
</defs>
</svg>
